<?xml version="1.0" encoding="utf-8"?>
<svg version="1.1" xmlns:xlink="http://www.w3.org/1999/xlink" width="100px" height="100px" xmlns="http://www.w3.org/2000/svg">
  <defs>
    <mask fill="white" id="clip148">
      <path d="M 31 130  C 30.445 130  30 129.555  30 129  L 30 31  C 30 30.445  30.445 30  31 30  L 129 30  C 129.555 30  130 30.445  130 31  L 130 129  C 130 129.555  129.555 130  129 130  " fill-rule="evenodd" />
    </mask>
  </defs>
  <g transform="matrix(1 0 0 1 -30 -30 )">
    <path d="M 30 30  L 130 30  L 130 130  L 30 130  L 30 30  " fill-rule="nonzero" fill="#cccccc" stroke="none" mask="url(#clip148)" />
    <path d="M 37 37  L 123 37  L 123 123  L 37 123  L 37 37  " fill-rule="nonzero" fill="#ffffff" stroke="none" mask="url(#clip148)" />
    <path d="M 89.5 60  C 85.3 60  82 56.7  82 52.5  C 82 48.3  85.3 45  89.5 45  C 93.7 45  97 48.3  97 52.5  C 97 56.7  93.7 60  89.5 60  " fill-rule="nonzero" fill="#cccccc" stroke="none" mask="url(#clip148)" />
    <path d="M 40 121  L 40 76.45  L 60.25 56.2  L 88.6 72.4  L 104.8 68.35  L 121 72.4  L 121 121  L 40 121  " fill-rule="nonzero" fill="#169bd5" stroke="none" mask="url(#clip148)" />
  </g>
</svg>