<?xml version="1.0" encoding="utf-8"?>
<svg version="1.1" xmlns:xlink="http://www.w3.org/1999/xlink" width="1238px" height="114px" xmlns="http://www.w3.org/2000/svg">
  <g>
    <path d="M 1 2  A 1 1 0 0 1 2 1 L 1236 1  A 1 1 0 0 1 1237 2 L 1237 112  A 1 1 0 0 1 1236 113 L 2 113  A 1 1 0 0 1 1 112 L 1 2  Z " fill-rule="nonzero" fill="#ecf5ff" stroke="none" />
    <path d="M 0.5 2  A 1.5 1.5 0 0 1 2 0.5 L 1236 0.5  A 1.5 1.5 0 0 1 1237.5 2 L 1237.5 112  A 1.5 1.5 0 0 1 1236 113.5 L 2 113.5  A 1.5 1.5 0 0 1 0.5 112 L 0.5 2  Z " stroke-width="1" stroke="#ebeef5" fill="none" stroke-opacity="0.996078431372549" />
  </g>
</svg>