<?xml version="1.0" encoding="utf-8"?>
<svg version="1.1" xmlns:xlink="http://www.w3.org/1999/xlink" width="1238px" height="48px" xmlns="http://www.w3.org/2000/svg">
  <g transform="matrix(1 0 0 1 -32 -65 )">
    <path d="M 33 67  A 1 1 0 0 1 34 66 L 1268 66  A 1 1 0 0 1 1269 67 L 1269 111  A 1 1 0 0 1 1268 112 L 34 112  A 1 1 0 0 1 33 111 L 33 67  Z " fill-rule="nonzero" fill="#ffffff" stroke="none" />
    <path d="M 32.5 67  A 1.5 1.5 0 0 1 34 65.5 L 1268 65.5  A 1.5 1.5 0 0 1 1269.5 67 L 1269.5 111  A 1.5 1.5 0 0 1 1268 112.5 L 34 112.5  A 1.5 1.5 0 0 1 32.5 111 L 32.5 67  Z " stroke-width="1" stroke="#ebeef5" fill="none" stroke-opacity="0.996078431372549" />
  </g>
</svg>