<?xml version="1.0" encoding="utf-8"?>
<svg version="1.1" xmlns:xlink="http://www.w3.org/1999/xlink" width="14px" height="14px" xmlns="http://www.w3.org/2000/svg">
  <g transform="matrix(1 0 0 1 -1235 -85 )">
    <path d="M 12.1277265732682 6.06500350126829  C 12.1277265732682 9.40741618679675  9.40827215089434 12.1268855133659  6.06584456117061 12.1268855133659  C 2.72341697144723 12.1268855133659  0.00394764487792701 9.40741618679675  0.00394764487792701 6.06500350126829  C 0.00394764487792701 2.72257591154473  2.72340206725213 0.00310658497560704  6.06584456117061 0.00310658497560704  C 9.40827215089434 0.00310658497560704  12.1277265732682 2.72259083030894  12.1277265732682 6.06500350126829  Z M 10.2625194978863 6.06500351583741  C 10.2625194978863 3.75081561912197  8.38001753912201 1.86828385196749  6.06584456117061 1.86828385196749  C 3.75164176026025 1.86828385196749  1.86912489730073 3.75083053788618  1.86912489730073 6.06500351583741  C 1.86912489730073 8.37917649378863  3.75164176026025 10.2616784525528  6.06584456117061 10.2616784525528  C 8.38001753912201 10.2616784525528  10.2625194978863 8.37919141255285  10.2625194978863 6.06500351583741  Z M 13.0603226515772 12.1268855133659  C 13.5748897841951 12.1268855133659  13.9929336486503 12.5440348201626  13.9929336486503 13.0595114146342  C 13.9929336486503 13.5749582007154  13.5748748800001 13.9920776845528  13.0603226515772 13.9920776845528  C 12.5457107918049 13.9920776845528  12.1277265586993 13.5749582007154  12.1277265586993 13.0595114146342  C 12.1277265586993 12.5440348055935  12.545725696 12.1268855133659  13.0603226515772 12.1268855133659  Z M 9.54887627343093 10.8665834083902  L 10.8676166056586 9.5478430761626  L 13.6653736335611 12.345600104065  L 12.3466333013334 13.6643404362927  L 9.54887627343093 10.8665834083902  Z " fill-rule="nonzero" fill="#bcc0c8" stroke="none" transform="matrix(1 0 0 1 1235 85 )" />
  </g>
</svg>