<?xml version="1.0" encoding="utf-8"?>
<svg version="1.1" xmlns:xlink="http://www.w3.org/1999/xlink" width="16px" height="16px" xmlns="http://www.w3.org/2000/svg">
  <g transform="matrix(1 0 0 1 -723 -24 )">
    <path d="M 15 8  C 15 4.134375  11.865625 1  8 1  C 4.134375 1  1 4.134375  1 8  C 1 11.865625  4.134375 15  8 15  C 11.865625 15  15 11.865625  15 8  Z M 11.14375 9.0109375  C 11.4828125 10.10625  11.371875 10.559375  11.2890625 10.56875  C 11.109375 10.590625  10.5875 9.7453125  10.5875 9.7453125  C 10.5875 10.234375  10.334375 10.8734375  9.7890625 11.3359375  C 10.053125 11.4171875  10.646875 11.6359375  10.50625 11.8734375  C 10.3921875 12.065625  8.54375 11.996875  8.009375 11.9359375  C 7.475 11.9953125  5.6265625 12.065625  5.5125 11.8734375  C 5.3703125 11.6359375  5.9640625 11.4171875  6.228125 11.3359375  C 5.68125 10.875  5.4296875 10.2359375  5.4296875 9.7453125  C 5.4296875 9.7453125  4.9078125 10.590625  4.728125 10.56875  C 4.64375 10.5578125  4.534375 10.10625  4.875 9.0109375  C 5.0359375 8.4953125  5.21875 8.065625  5.503125 7.3578125  C 5.4546875 5.53125  6.2109375 3.9984375  8.009375 3.9984375  C 9.7890625 3.9984375  10.5609375 5.5  10.515625 7.3578125  C 10.7984375 8.0640625  10.9828125 8.4953125  11.14375 9.0109375  Z " fill-rule="nonzero" fill="#02a7f0" stroke="none" transform="matrix(1 0 0 1 723 24 )" />
  </g>
</svg>