<?xml version="1.0" encoding="utf-8"?>
<svg version="1.1" xmlns:xlink="http://www.w3.org/1999/xlink" width="16px" height="16px" xmlns="http://www.w3.org/2000/svg">
  <g transform="matrix(1 0 0 1 -822 -24 )">
    <path d="M 5.50935661268293 5.33186875317073  C 5.50935661268293 5.02290731707317  5.30576596292683 4.81910634146341  5.00164189658537 4.81910634146341  C 4.69814880780488 4.81910634146341  4.3917112195122 5.02290731707317  4.3917112195122 5.33186875317073  C 4.3917112195122 5.63956826536585  4.69814880780488 5.84589308878049  5.00164189658537 5.84589308878049  C 5.30555563707317 5.84589308878049  5.50935661268293 5.63956826536585  5.50935661268293 5.33186875317073  Z M 7.22999208585366 5.33207907902439  C 7.23020241170732 5.63956826536585  7.53537807609756 5.84610341463415  7.83887116487805 5.84610341463415  C 8.14530875317073 5.84610341463415  8.34784780487805 5.63956826536585  8.34784780487805 5.33207907902439  C 8.34784780487805 5.02290731707317  8.14530875317073 4.81931666731707  7.83887116487805 4.81931666731707  C 7.53537807609756 4.81931666731707  7.22999208585366 5.02311764292683  7.22999208585366 5.33207907902439  Z M 15.9846005697561 8  C 15.9846005697561 3.58557411902439  12.4066210029268 0.0078048780487809  7.99219512195122 0.0078048780487809  C 3.57797956682927 0.0078048780487809  0 3.58557411902439  0 8  C 0 12.4142155551219  3.57797956682927 15.9921951219512  7.99219512195122 15.9921951219512  C 12.4066210029268 15.9921951219512  15.9846005697561 12.4142155551219  15.9846005697561 8  Z M 6.69745949658537 10.0462122770732  C 6.5725288897561 10.0565179941463  6.44717761560976 10.0617760156098  6.31951280390244 10.0617760156098  C 5.81306001170732 10.0617760156098  5.40545806048781 9.95808780487805  4.89942592 9.85545119219512  L 3.4820732097561 10.5764313131707  L 3.88694098731707 9.33995460682927  C 2.87214253268293 8.62086737170732  2.26473570341463 7.69524497170732  2.26473570341463 6.56687322536585  C 2.26473570341463 4.61130926829268  4.09095228878049 3.07176010926829  6.31951280390244 3.07176010926829  C 8.31335516097561 3.07176010926829  10.059649795122 4.30234783219512  10.4098341463415 5.95673222243902  C 10.2821693502439 5.94222008195122  10.1513497287805 5.93275563707317  10.0194785092683 5.93275563707317  C 8.09335948487805 5.93275563707317  6.57252887414634 7.39027964878049  6.57252887414634 9.18410680195122  C 6.57252887414634 9.48402444487805  6.61900979512195 9.77174346926829  6.69745949658537 10.0462122770732  Z M 13.7200751609756 9.13615363121951  C 13.7198648507317 10.0617760156098  13.1141405970732 10.8824482653659  12.2999882926829 11.500371137561  L 12.6049536312195 12.5288404604878  L 11.4931972214634 11.9119691863415  C 11.0866468682927 12.0146057990244  10.6807274926829 12.1172424117073  10.2769113131707 12.1172424117073  C 8.34805811512195 12.1172424117073  6.82701719414634 10.7810735765854  6.82701719414634 9.13615363121951  C 6.82701719414634 7.49270593560976  8.34805811512195 6.15380292682927  10.2769113131707 6.15380292682927  C 12.0976595512195 6.15380292682927  13.7200751609756 7.4924956097561  13.7200751609756 9.13615363121951  Z M 11.896592764878 8.21053124682927  C 11.8963824390244 8.00525802146342  11.6927917892683 7.79872287219512  11.3878264507317 7.79872287219512  C 11.1880215726829 7.79872287219512  10.9867444448781 8.00525802146342  10.9867444448781 8.21053124682927  C 10.9867444448781 8.41664576  11.1880215726829 8.62065704585366  11.3878264507317 8.62065704585366  C 11.6927917892683 8.62065704585366  11.896592764878 8.41664574439024  11.896592764878 8.21053124682927  Z M 9.66529807609756 8.21053124682927  C 9.66529807609756 8.00525802146342  9.46528287219512 7.79872287219512  9.15758336 7.79872287219512  C 8.95672688390244 7.79872287219512  8.75292590829268 8.00525802146342  8.75292590829268 8.21053124682927  C 8.75292590829268 8.41664576  8.95672688390244 8.62065704585366  9.15758336 8.62065704585366  C 9.46528287219512 8.62065704585366  9.66529807609756 8.41664574439024  9.66529807609756 8.21053124682927  Z " fill-rule="nonzero" fill="#00c297" stroke="none" transform="matrix(1 0 0 1 822 24 )" />
  </g>
</svg>