<?xml version="1.0" encoding="utf-8"?>
<svg version="1.1" xmlns:xlink="http://www.w3.org/1999/xlink" width="29px" height="39px" xmlns="http://www.w3.org/2000/svg">
  <g transform="matrix(1 0 0 1 -11 -6 )">
    <path d="M 27.9229606845851 13.224409168564  C 27.9229606845851 12.8700850577406  27.7741093299315 12.5307538421844  27.510125 12.2832821294364  L 15.4674883473047 0.710937486579241  C 14.9326849376004 0.197956259279651  14.0664209097043 0.197956259279651  13.5316175 0.710937486579241  L 1.489875 12.2832821294364  C 1.24750139356063 12.5277901664982  1.11231512208483 12.8524802788423  1.11231512208483 13.1901046776033  C 1.11231512208483 13.9163699646692  1.72522348875773 14.5051243070397  2.48128427478014 14.5051243070397  C 2.83254129049186 14.5051243070397  3.17035897296665 14.3754266861091  3.42485165269531 14.1428625  L 13.260685 4.69464820086496  L 13.260685 37.4026482277065  C 13.260685 38.1289135258904  13.8735933760557 38.717667877274  14.6296541736523 38.717667877274  C 15.385714971249 38.717667877274  15.9986233473047 38.1289135258904  15.9986233473047 37.4026482277065  C 15.9986233473047 37.4026482277065  15.9986233473047 37.4026482277065  16 37.4026482277065  L 16 4.94459641515067  L 25.5742541526953 14.1428625  C 25.8318785510945 14.3964435065844  26.1851310472889 14.5394287980004  26.5539915318897 14.5394287980004  C 27.3100523179121 14.5394287980004  27.9229606845851 13.9506744556299  27.9229606845851 13.224409168564  Z " fill-rule="nonzero" fill="#ffffff" stroke="none" transform="matrix(1 0 0 1 11 6 )" />
  </g>
</svg>