<?xml version="1.0" encoding="utf-8"?>
<svg version="1.1" xmlns:xlink="http://www.w3.org/1999/xlink" width="12px" height="5px" xmlns="http://www.w3.org/2000/svg">
  <g transform="matrix(1 0 0 1 -1173 -430 )">
    <path d="M 6.41499999511719 1.48  L 1.92125 4.72375  C 1.68133617747791 4.96243204971742  1.2936638274049 4.96243204971742  1.05375000488281 4.72375  C 0.815067955165399 4.48383617747791  0.815067955165399 4.0961638274049  1.05375000488281 3.85625000488281  L 5.98125000488281 0.178750000000001  C 6.03898820126336 0.120749365942197  6.10787203272836 0.0750394177112703  6.18375000488281 0.0443750048828138  C 6.31324859626993 -0.0071803997990445  6.45630310125207 -0.0137829154929614  6.59 0.0256250048828139  L 6.64625 0.0443750048828129  C 6.72212797215445 0.0750394177112703  6.79101180361945 0.120749365942197  6.84875 0.178750000000001  L 11.7756249951172 3.85499999511719  C 12.0143070545501 4.09491381934412  12.0143070545501 4.48258618065588  11.7756249951172 4.72250000488281  C 11.5357111725951 4.96118205460023  11.1480388225221 4.96118205460023  10.908125 4.72250000488281  L 6.41437500488281 1.48  Z " fill-rule="nonzero" fill="#d7d7d7" stroke="none" transform="matrix(1 0 0 1 1173 430 )" />
  </g>
</svg>