<?xml version="1.0" encoding="utf-8"?>
<svg version="1.1" xmlns:xlink="http://www.w3.org/1999/xlink" width="8px" height="8px" xmlns="http://www.w3.org/2000/svg">
  <g transform="matrix(1 0 0 1 -5 -4 )">
    <path d="M 7.34318181818182 5.94772727272727  C 8.04318181818182 4.74545454545455  8.04318181818182 3.25454545454546  7.34318181818182 2.05227272727273  C 6.64318181818182 0.850000000000001  5.34772727272727 0.113636363636364  3.95227272727273 0.131818181818182  C 1.83409090909091 0.159090909090909  0.131818181818183 1.88181818181818  0.131818181818183 4  C 0.131818181818183 6.11818181818182  1.83409090909091 7.84090909090909  3.95227272727273 7.86818181818182  C 5.34772727272727 7.88409090909091  6.64318181818182 7.15  7.34318181818182 5.94772727272727  Z M 6.11818181818182 3.99772727272727  C 6.11818181818182 5.15909090909091  5.18863636363637 6.09772727272727  4.03409090909091 6.11818181818182  C 3.27272727272727 6.13181818181818  2.55681818181818 5.72954545454546  2.17045454545455 5.06818181818182  C 1.78409090909091 4.40909090909091  1.78409090909091 3.58863636363636  2.17045454545455 2.92954545454545  C 2.55681818181818 2.27045454545455  3.26818181818182 1.86590909090909  4.03409090909091 1.87954545454545  C 5.18863636363636 1.9  6.11818181818182 2.84318181818182  6.11818181818182 3.99772727272727  Z " fill-rule="nonzero" fill="#bcc0c8" stroke="none" transform="matrix(1 0 0 1 5 4 )" />
  </g>
</svg>