<?xml version="1.0" encoding="utf-8"?>
<svg version="1.1" xmlns:xlink="http://www.w3.org/1999/xlink" width="18px" height="14px" xmlns="http://www.w3.org/2000/svg">
  <g>
    <path d="M 17.7810267857143 7.79791666666667  C 18.0763392857143 7.26666666666667  18.0522321428571 6.60833333333333  17.7227678571429 6.1  C 15.0970982142857 2.06458333333333  12.1901785714286 0.0479166666666669  9 0.0479166666666669  C 5.87008928571429 0.0479166666666669  3.01138392857143 1.99375  0.421875 5.88125  L 0.277232142857143 6.10416666666667  L 0.218973214285714 6.20208333333333  C -0.0763392857142859 6.73541666666667  -0.052232142857143 7.39166666666667  0.277232142857143 7.9  C 2.90290178571429 11.9354166666667  5.80982142857143 13.9520833333333  9 13.9520833333333  C 12.1299107142857 13.9520833333333  14.9886160714286 12.00625  17.578125 8.11875  L 17.7227678571429 7.89583333333333  L 17.7810267857143 7.79791666666667  Z M 16.4410714285714 7  L 16.2984375 7.21666666666667  C 13.978125 10.7  11.5553571428571 12.3479166666667  9 12.3479166666667  C 6.44665178571429 12.3479166666667  4.02388392857143 10.7  1.7015625 7.21666666666667  L 1.55892857142857 7  L 1.7015625 6.78333333333334  C 4.021875 3.3  6.44464285714286 1.65208333333333  9 1.65208333333333  C 11.5533482142857 1.65208333333333  13.9761160714286 3.3  16.2984375 6.78333333333333  L 16.4410714285714 7  Z " fill-rule="nonzero" fill="#909399" stroke="none" />
  </g>
</svg>