<?xml version="1.0" encoding="utf-8"?>
<svg version="1.1" xmlns:xlink="http://www.w3.org/1999/xlink" width="14px" height="14px" xmlns="http://www.w3.org/2000/svg">
  <g transform="matrix(1 0 0 1 -2 0 )">
    <path d="M 1.073975 13.9845805555556  L 0.0152833333333334 12.9258888888889  L 12.9271333333333 0.0140388888888885  L 13.985825 1.07273055555556  L 1.073975 13.9845805555556  Z M 3.79361111111111 7.83222222222222  L 5.32777777777778 6.3  C 5.35888888888889 6.22611111111111  5.39388888888889 6.15416666666667  5.43472222222222 6.08416666666667  C 5.63694444444444 5.73805555555555  5.94416666666667 5.47555555555556  6.3 5.32583333333333  L 7.83027777777778 3.79555555555556  C 7.54833333333333 3.72166666666667  7.25666666666667 3.68666666666667  6.95722222222222 3.69055555555556  C 5.145 3.71388888888889  3.68861111111111 5.18777777777778  3.68861111111111 7  C 3.68861111111111 7.28777777777778  3.72555555555556 7.56583333333333  3.79361111111111 7.83222222222222  Z M 10.2044444444444 6.16777777777778  L 8.67222222222222 7.7  C 8.48944444444444 8.1375  8.1375 8.4875  7.7 8.67222222222222  L 6.16777777777778 10.2044444444444  C 6.42055555555556 10.2705555555556  6.68694444444444 10.3075  6.95916666666667 10.3094444444444  C 8.15305555555555 10.3230555555556  9.26138888888889 9.695  9.86027777777778 8.66638888888889  C 10.3055555555556 7.90222222222222  10.4202777777778 7.00194444444444  10.2044444444444 6.16777777777778  Z " fill-rule="nonzero" fill="#909399" stroke="none" transform="matrix(1 0 0 1 2 0 )" />
  </g>
</svg>