<?xml version="1.0" encoding="utf-8"?>
<svg version="1.1" xmlns:xlink="http://www.w3.org/1999/xlink" width="17px" height="13px" xmlns="http://www.w3.org/2000/svg">
  <g>
    <path d="M 0.261830357142857 7.33571428571429  C 1.00368303571429 8.45580357142857  1.77020089285714 9.40952380952381  2.55948660714286 10.196875  L 3.59162946428571 9.14449404761905  C 2.91997767857143 8.47901785714286  2.2578125 7.66651785714286  1.60513392857143 6.703125  L 1.47042410714286 6.50193452380952  L 1.60513392857143 6.30074404761905  C 3.7984375 3.06428571428571  6.08660714285714 1.53407738095238  8.5 1.53407738095238  C 9.22477678571429 1.53407738095238  9.94006696428571 1.6733630952381  10.6439732142857 1.95386904761905  L 11.75390625 0.822172619047619  C 10.7065848214286 0.303720238095238  9.62321428571429 0.0425595238095236  8.50189732142857 0.0425595238095236  C 5.54587053571429 0.0425595238095236  2.84598214285714 1.84940476190476  0.400334821428572 5.45922619047619  L 0.261830357142857 5.66815476190476  L 0.206808035714286 5.75907738095238  C -0.0720982142857145 6.25431547619048  -0.0493303571428573 6.86369047619047  0.261830357142857 7.33571428571429  Z M 16.7931919642857 7.24285714285714  C 17.0720982142857 6.74761904761904  17.0493303571429 6.13630952380952  16.7381696428571 5.66428571428571  C 15.9963169642857 4.54226190476191  15.2297991071429 3.58854166666667  14.4405133928571 2.803125  L 13.4083705357143 3.85550595238095  C 14.0800223214286 4.52098214285714  14.7421875 5.33348214285714  15.3948660714286 6.296875  L 15.5295758928571 6.49806547619048  L 15.3948660714286 6.69925595238095  C 13.2015625 9.93571428571429  10.9133928571429 11.4659226190476  8.5 11.4659226190476  C 7.77522321428571 11.4659226190476  7.05993303571429 11.3266369047619  6.35602678571429 11.046130952381  L 5.24609375 12.1778273809524  C 6.29341517857143 12.6962797619048  7.37678571428571 12.9574404761905  8.5 12.9574404761905  C 11.4560267857143 12.9574404761905  14.1559151785714 11.1505952380952  16.6015625 7.54077380952381  L 16.7381696428571 7.33377976190476  L 16.7931919642857 7.24285714285714  Z " fill-rule="nonzero" fill="#bcc0c8" stroke="none" />
  </g>
</svg>