<?xml version="1.0" encoding="utf-8"?>
<svg version="1.1" xmlns:xlink="http://www.w3.org/1999/xlink" width="11px" height="14px" xmlns="http://www.w3.org/2000/svg">
  <defs>
    <mask fill="white" id="clip155">
      <path d="M 10.943235875 6.37391944  C 10.943235875 5.5445706925  10.2718077626582 4.86953397  9.4468869556962 4.86953397  L 9.36720184177215 4.86953397  L 9.36720184177215 3.85256459  C 9.36720184177215 1.729498435  7.64902053481013 0.00207058249999974  5.53734724525317 0.00207058249999974  C 3.42517524841772 0.00207058249999974  1.7069939414557 1.729480515  1.7069939414557 3.85256459  L 1.7069939414557 4.86953397  L 1.6272910221519 4.86953397  C 0.802388020569621 4.86953397  0.130942102848102 5.5445706925  0.130942102848102 6.37391944  L 0.130942102848102 12.4750551975  C 0.130942102848102 13.3043681225  0.802370215189875 13.979404845  1.6272910221519 13.979404845  L 9.4468869556962 13.979404845  C 10.2717899572785 13.979404845  10.943235875 13.3043681225  10.943235875 12.4750551975  L 10.943235875 6.37391944  Z M 2.71436765822785 4.86953397  L 2.71436765822785 3.8525646075  C 2.71436765822785 2.2878296525  3.98099405696203 1.01490326  5.53734724525316 1.01490326  C 7.09368262816456 1.01490326  8.35982814240506 2.2878296525  8.35982814240506 3.8525646075  L 8.35982814240506 4.8695339875  L 2.71436765822785 4.86953397  Z M 9.93582654746835 6.37391944  L 9.93582654746835 12.4750551975  C 9.93582654746835 12.7460190025  9.71645205063291 12.966572185  9.4468869556962 12.966572185  L 1.6272910221519 12.966572185  C 1.35772594462025 12.966572185  1.13835143037975 12.7460190025  1.13835143037975 12.4750551975  L 1.13835143037975 6.37391944  C 1.13835143037975 6.1029198125  1.35772592721519 5.882330825  1.6272910221519 5.882330825  L 9.4468869556962 5.882330825  C 9.71645203322785 5.882330825  9.93582654746835 6.10290191  9.93582654746835 6.37391944  Z M 6.79633285601266 9.445511145  C 6.7963328386076 8.83393987  6.36314077689873 8.3227063325  5.78894133386076 8.2050696  L 5.78894133386076 7.41989955  C 5.78894133386076 7.2799317325  5.67630641613924 7.16664662  5.53709790031646 7.16664662  C 5.39788938449367 7.16664662  5.28525446677215 7.27991383  5.28525446677215 7.41989955  L 5.28525446677215 8.2050696  C 4.71105500632911 8.322706315  4.27786294462025 8.83393987  4.27786294462025 9.445511145  C 4.27786294462025 10.057028695  4.71105500632911 10.568298055  5.28525446677215 10.68593477  L 5.28525446677215 11.47110482  C 5.28525446677215 11.6110726375  5.39788938449367 11.724321945  5.53709790031646 11.724321945  C 5.67630641613924 11.724321945  5.78894133386076 11.611072655  5.78894133386076 11.47110482  L 5.78894133386076 10.68593477  C 6.3631407943038 10.568298055  6.79633285601266 10.057028695  6.79633285601266 9.445511145  Z M 6.29264598892405 9.445511145  C 6.29264598892405 9.8643580525  5.95372599841772 10.205090875  5.53709790031646 10.205090875  C 5.12046978481013 10.205090875  4.78154981170886 9.8643580525  4.78154981170886 9.445511145  C 4.78154981170886 9.0266284325  5.12046980221519 8.68589561  5.53709790031646 8.68589561  C 5.95372599841772 8.68589561  6.29264598892405 9.0266284325  6.29264598892405 9.445511145  Z " fill-rule="evenodd" />
    </mask>
  </defs>
  <g transform="matrix(1 0 0 1 -572 -495 )">
    <path d="M 10.943235875 6.37391944  C 10.943235875 5.5445706925  10.2718077626582 4.86953397  9.4468869556962 4.86953397  L 9.36720184177215 4.86953397  L 9.36720184177215 3.85256459  C 9.36720184177215 1.729498435  7.64902053481013 0.00207058249999974  5.53734724525317 0.00207058249999974  C 3.42517524841772 0.00207058249999974  1.7069939414557 1.729480515  1.7069939414557 3.85256459  L 1.7069939414557 4.86953397  L 1.6272910221519 4.86953397  C 0.802388020569621 4.86953397  0.130942102848102 5.5445706925  0.130942102848102 6.37391944  L 0.130942102848102 12.4750551975  C 0.130942102848102 13.3043681225  0.802370215189875 13.979404845  1.6272910221519 13.979404845  L 9.4468869556962 13.979404845  C 10.2717899572785 13.979404845  10.943235875 13.3043681225  10.943235875 12.4750551975  L 10.943235875 6.37391944  Z M 2.71436765822785 4.86953397  L 2.71436765822785 3.8525646075  C 2.71436765822785 2.2878296525  3.98099405696203 1.01490326  5.53734724525316 1.01490326  C 7.09368262816456 1.01490326  8.35982814240506 2.2878296525  8.35982814240506 3.8525646075  L 8.35982814240506 4.8695339875  L 2.71436765822785 4.86953397  Z M 9.93582654746835 6.37391944  L 9.93582654746835 12.4750551975  C 9.93582654746835 12.7460190025  9.71645205063291 12.966572185  9.4468869556962 12.966572185  L 1.6272910221519 12.966572185  C 1.35772594462025 12.966572185  1.13835143037975 12.7460190025  1.13835143037975 12.4750551975  L 1.13835143037975 6.37391944  C 1.13835143037975 6.1029198125  1.35772592721519 5.882330825  1.6272910221519 5.882330825  L 9.4468869556962 5.882330825  C 9.71645203322785 5.882330825  9.93582654746835 6.10290191  9.93582654746835 6.37391944  Z M 6.79633285601266 9.445511145  C 6.7963328386076 8.83393987  6.36314077689873 8.3227063325  5.78894133386076 8.2050696  L 5.78894133386076 7.41989955  C 5.78894133386076 7.2799317325  5.67630641613924 7.16664662  5.53709790031646 7.16664662  C 5.39788938449367 7.16664662  5.28525446677215 7.27991383  5.28525446677215 7.41989955  L 5.28525446677215 8.2050696  C 4.71105500632911 8.322706315  4.27786294462025 8.83393987  4.27786294462025 9.445511145  C 4.27786294462025 10.057028695  4.71105500632911 10.568298055  5.28525446677215 10.68593477  L 5.28525446677215 11.47110482  C 5.28525446677215 11.6110726375  5.39788938449367 11.724321945  5.53709790031646 11.724321945  C 5.67630641613924 11.724321945  5.78894133386076 11.611072655  5.78894133386076 11.47110482  L 5.78894133386076 10.68593477  C 6.3631407943038 10.568298055  6.79633285601266 10.057028695  6.79633285601266 9.445511145  Z M 6.29264598892405 9.445511145  C 6.29264598892405 9.8643580525  5.95372599841772 10.205090875  5.53709790031646 10.205090875  C 5.12046978481013 10.205090875  4.78154981170886 9.8643580525  4.78154981170886 9.445511145  C 4.78154981170886 9.0266284325  5.12046980221519 8.68589561  5.53709790031646 8.68589561  C 5.95372599841772 8.68589561  6.29264598892405 9.0266284325  6.29264598892405 9.445511145  Z " fill-rule="nonzero" fill="#ffffff" stroke="none" fill-opacity="0" transform="matrix(1 0 0 1 572 495 )" />
    <path d="M 10.943235875 6.37391944  C 10.943235875 5.5445706925  10.2718077626582 4.86953397  9.4468869556962 4.86953397  L 9.36720184177215 4.86953397  L 9.36720184177215 3.85256459  C 9.36720184177215 1.729498435  7.64902053481013 0.00207058249999974  5.53734724525317 0.00207058249999974  C 3.42517524841772 0.00207058249999974  1.7069939414557 1.729480515  1.7069939414557 3.85256459  L 1.7069939414557 4.86953397  L 1.6272910221519 4.86953397  C 0.802388020569621 4.86953397  0.130942102848102 5.5445706925  0.130942102848102 6.37391944  L 0.130942102848102 12.4750551975  C 0.130942102848102 13.3043681225  0.802370215189875 13.979404845  1.6272910221519 13.979404845  L 9.4468869556962 13.979404845  C 10.2717899572785 13.979404845  10.943235875 13.3043681225  10.943235875 12.4750551975  L 10.943235875 6.37391944  Z " stroke-width="2" stroke="#dcdfe6" fill="none" transform="matrix(1 0 0 1 572 495 )" mask="url(#clip155)" />
    <path d="M 2.71436765822785 4.86953397  L 2.71436765822785 3.8525646075  C 2.71436765822785 2.2878296525  3.98099405696203 1.01490326  5.53734724525316 1.01490326  C 7.09368262816456 1.01490326  8.35982814240506 2.2878296525  8.35982814240506 3.8525646075  L 8.35982814240506 4.8695339875  L 2.71436765822785 4.86953397  Z " stroke-width="2" stroke="#dcdfe6" fill="none" transform="matrix(1 0 0 1 572 495 )" mask="url(#clip155)" />
    <path d="M 9.93582654746835 6.37391944  L 9.93582654746835 12.4750551975  C 9.93582654746835 12.7460190025  9.71645205063291 12.966572185  9.4468869556962 12.966572185  L 1.6272910221519 12.966572185  C 1.35772594462025 12.966572185  1.13835143037975 12.7460190025  1.13835143037975 12.4750551975  L 1.13835143037975 6.37391944  C 1.13835143037975 6.1029198125  1.35772592721519 5.882330825  1.6272910221519 5.882330825  L 9.4468869556962 5.882330825  C 9.71645203322785 5.882330825  9.93582654746835 6.10290191  9.93582654746835 6.37391944  Z " stroke-width="2" stroke="#dcdfe6" fill="none" transform="matrix(1 0 0 1 572 495 )" mask="url(#clip155)" />
    <path d="M 6.79633285601266 9.445511145  C 6.7963328386076 8.83393987  6.36314077689873 8.3227063325  5.78894133386076 8.2050696  L 5.78894133386076 7.41989955  C 5.78894133386076 7.2799317325  5.67630641613924 7.16664662  5.53709790031646 7.16664662  C 5.39788938449367 7.16664662  5.28525446677215 7.27991383  5.28525446677215 7.41989955  L 5.28525446677215 8.2050696  C 4.71105500632911 8.322706315  4.27786294462025 8.83393987  4.27786294462025 9.445511145  C 4.27786294462025 10.057028695  4.71105500632911 10.568298055  5.28525446677215 10.68593477  L 5.28525446677215 11.47110482  C 5.28525446677215 11.6110726375  5.39788938449367 11.724321945  5.53709790031646 11.724321945  C 5.67630641613924 11.724321945  5.78894133386076 11.611072655  5.78894133386076 11.47110482  L 5.78894133386076 10.68593477  C 6.3631407943038 10.568298055  6.79633285601266 10.057028695  6.79633285601266 9.445511145  Z " stroke-width="2" stroke="#dcdfe6" fill="none" transform="matrix(1 0 0 1 572 495 )" mask="url(#clip155)" />
    <path d="M 6.29264598892405 9.445511145  C 6.29264598892405 9.8643580525  5.95372599841772 10.205090875  5.53709790031646 10.205090875  C 5.12046978481013 10.205090875  4.78154981170886 9.8643580525  4.78154981170886 9.445511145  C 4.78154981170886 9.0266284325  5.12046980221519 8.68589561  5.53709790031646 8.68589561  C 5.95372599841772 8.68589561  6.29264598892405 9.0266284325  6.29264598892405 9.445511145  Z " stroke-width="2" stroke="#dcdfe6" fill="none" transform="matrix(1 0 0 1 572 495 )" mask="url(#clip155)" />
  </g>
</svg>