<?xml version="1.0" encoding="utf-8"?>
<svg version="1.1" xmlns:xlink="http://www.w3.org/1999/xlink" width="12px" height="14px" xmlns="http://www.w3.org/2000/svg">
  <defs>
    <mask fill="white" id="clip156">
      <path d="M 9.16981132075472 3.76923076923077  C 9.16981132075472 5.85091944166991  7.75063845229383 7.53846153846154  6 7.53846153846154  C 4.24936154770616 7.53846153846154  2.83018867924528 5.85091944166991  2.83018867924528 3.76923076923077  C 2.83018867924528 1.68754209679163  4.24936154770616 0  6 0  C 7.75063845229383 0  9.16981132075472 1.68754209679163  9.16981132075472 3.76923076923077  Z M 8.26415094339622 3.76923076923077  C 8.26415094339622 2.2823102889171  7.25045603735274 1.07692307692308  6 1.07692307692308  C 4.74954396264726 1.07692307692308  3.73584905660377 2.2823102889171  3.73584905660377 3.76923076923077  C 3.73584905660377 5.25615124954444  4.74954396264726 6.46153846153846  6 6.46153846153846  C 7.25045603735274 6.46153846153846  8.26415094339622 5.25615124954444  8.26415094339622 3.76923076923077  Z M 6 8.61538461538462  C 7.93177358490566 8.61538461538462  9.75849056603774 9.13984615384615  11.4004528301887 10.0724615384615  C 11.7011631857781 10.247946913973  11.8903479815686 10.6132452932393  11.8867924528302 11.0115384615385  L 11.8867924528302 13.4615384615385  C 11.8867924528302 13.7589225576012  11.6840534716215 14  11.4339622641509 14  L 0.566037735849057 14  C 0.315946528378509 14  0.113207547169811 13.7589225576012  0.113207547169811 13.4615384615385  L 0.113207547169811 11.0115384615385  C 0.109652018431367 10.6132452932393  0.298836814221899 10.247946913973  0.599547169811321 10.0724615384615  C 2.28526961094207 9.1121655183192  4.13081690836604 8.61422498220503  6 8.61538461538462  Z M 10.9811320754717 11.0276923076923  C 9.42501003333545 10.1473504334371  7.7232586107783 9.69113031430354  6 9.69230769230769  C 4.21856603773585 9.69230769230769  2.53494339622641 10.1726153846154  1.0188679245283 11.0276923076923  L 1.0188679245283 12.9230769230769  L 10.9811320754717 12.9230769230769  L 10.9811320754717 11.0276923076923  Z " fill-rule="evenodd" />
    </mask>
  </defs>
  <g transform="matrix(1 0 0 1 -571 -435 )">
    <path d="M 9.16981132075472 3.76923076923077  C 9.16981132075472 5.85091944166991  7.75063845229383 7.53846153846154  6 7.53846153846154  C 4.24936154770616 7.53846153846154  2.83018867924528 5.85091944166991  2.83018867924528 3.76923076923077  C 2.83018867924528 1.68754209679163  4.24936154770616 0  6 0  C 7.75063845229383 0  9.16981132075472 1.68754209679163  9.16981132075472 3.76923076923077  Z M 8.26415094339622 3.76923076923077  C 8.26415094339622 2.2823102889171  7.25045603735274 1.07692307692308  6 1.07692307692308  C 4.74954396264726 1.07692307692308  3.73584905660377 2.2823102889171  3.73584905660377 3.76923076923077  C 3.73584905660377 5.25615124954444  4.74954396264726 6.46153846153846  6 6.46153846153846  C 7.25045603735274 6.46153846153846  8.26415094339622 5.25615124954444  8.26415094339622 3.76923076923077  Z M 6 8.61538461538462  C 7.93177358490566 8.61538461538462  9.75849056603774 9.13984615384615  11.4004528301887 10.0724615384615  C 11.7011631857781 10.247946913973  11.8903479815686 10.6132452932393  11.8867924528302 11.0115384615385  L 11.8867924528302 13.4615384615385  C 11.8867924528302 13.7589225576012  11.6840534716215 14  11.4339622641509 14  L 0.566037735849057 14  C 0.315946528378509 14  0.113207547169811 13.7589225576012  0.113207547169811 13.4615384615385  L 0.113207547169811 11.0115384615385  C 0.109652018431367 10.6132452932393  0.298836814221899 10.247946913973  0.599547169811321 10.0724615384615  C 2.28526961094207 9.1121655183192  4.13081690836604 8.61422498220503  6 8.61538461538462  Z M 10.9811320754717 11.0276923076923  C 9.42501003333545 10.1473504334371  7.7232586107783 9.69113031430354  6 9.69230769230769  C 4.21856603773585 9.69230769230769  2.53494339622641 10.1726153846154  1.0188679245283 11.0276923076923  L 1.0188679245283 12.9230769230769  L 10.9811320754717 12.9230769230769  L 10.9811320754717 11.0276923076923  Z " fill-rule="nonzero" fill="#ffffff" stroke="none" fill-opacity="0" transform="matrix(1 0 0 1 571 435 )" />
    <path d="M 9.16981132075472 3.76923076923077  C 9.16981132075472 5.85091944166991  7.75063845229383 7.53846153846154  6 7.53846153846154  C 4.24936154770616 7.53846153846154  2.83018867924528 5.85091944166991  2.83018867924528 3.76923076923077  C 2.83018867924528 1.68754209679163  4.24936154770616 0  6 0  C 7.75063845229383 0  9.16981132075472 1.68754209679163  9.16981132075472 3.76923076923077  Z " stroke-width="2" stroke="#dcdfe6" fill="none" transform="matrix(1 0 0 1 571 435 )" mask="url(#clip156)" />
    <path d="M 8.26415094339622 3.76923076923077  C 8.26415094339622 2.2823102889171  7.25045603735274 1.07692307692308  6 1.07692307692308  C 4.74954396264726 1.07692307692308  3.73584905660377 2.2823102889171  3.73584905660377 3.76923076923077  C 3.73584905660377 5.25615124954444  4.74954396264726 6.46153846153846  6 6.46153846153846  C 7.25045603735274 6.46153846153846  8.26415094339622 5.25615124954444  8.26415094339622 3.76923076923077  Z " stroke-width="2" stroke="#dcdfe6" fill="none" transform="matrix(1 0 0 1 571 435 )" mask="url(#clip156)" />
    <path d="M 6 8.61538461538462  C 7.93177358490566 8.61538461538462  9.75849056603774 9.13984615384615  11.4004528301887 10.0724615384615  C 11.7011631857781 10.247946913973  11.8903479815686 10.6132452932393  11.8867924528302 11.0115384615385  L 11.8867924528302 13.4615384615385  C 11.8867924528302 13.7589225576012  11.6840534716215 14  11.4339622641509 14  L 0.566037735849057 14  C 0.315946528378509 14  0.113207547169811 13.7589225576012  0.113207547169811 13.4615384615385  L 0.113207547169811 11.0115384615385  C 0.109652018431367 10.6132452932393  0.298836814221899 10.247946913973  0.599547169811321 10.0724615384615  C 2.28526961094207 9.1121655183192  4.13081690836604 8.61422498220503  6 8.61538461538462  Z " stroke-width="2" stroke="#dcdfe6" fill="none" transform="matrix(1 0 0 1 571 435 )" mask="url(#clip156)" />
    <path d="M 10.9811320754717 11.0276923076923  C 9.42501003333545 10.1473504334371  7.7232586107783 9.69113031430354  6 9.69230769230769  C 4.21856603773585 9.69230769230769  2.53494339622641 10.1726153846154  1.0188679245283 11.0276923076923  L 1.0188679245283 12.9230769230769  L 10.9811320754717 12.9230769230769  L 10.9811320754717 11.0276923076923  Z " stroke-width="2" stroke="#dcdfe6" fill="none" transform="matrix(1 0 0 1 571 435 )" mask="url(#clip156)" />
  </g>
</svg>