<?xml version="1.0" encoding="utf-8"?>
<svg version="1.1" xmlns:xlink="http://www.w3.org/1999/xlink" width="11px" height="14px" xmlns="http://www.w3.org/2000/svg">
  <defs>
    <mask fill="white" id="clip157">
      <path d="M 9.25193798982558 0.024561403508772  L 10.9232558139535 0.024561403508772  L 7.03488372093023 6.27953216885965  L 10.4116279069767 6.27953216885965  L 10.4116279069767 7.39298245614035  L 6.28449612936047 7.39298245614035  L 6.28449612936047 9.16140350877193  L 10.4457364447674 9.16140350877193  L 10.4457364287791 10.2748537960526  L 6.28449612936047 10.2748537960526  L 6.28449612936047 13.9754385964912  L 4.74961240843023 13.9754385964912  L 4.74961240843023 10.2748537960526  L 0.622480614825581 10.2748537960526  L 0.622480614825581 9.16140350877193  L 4.74961239244186 9.16140350877193  L 4.74961239244186 7.39298245614035  L 0.622480614825581 7.39298245614035  L 0.622480614825581 6.27953216885965  L 3.99922480087209 6.27953216885965  L 0.0767441860465118 0.024561403508772  L 1.78217054796512 0.024561403508772  L 5.5341085377907 6.18128655482456  L 9.25193798982558 0.024561403508772  Z " fill-rule="evenodd" />
    </mask>
  </defs>
  <g transform="matrix(1 0 0 1 -972 -375 )">
    <path d="M 9.25193798982558 0.024561403508772  L 10.9232558139535 0.024561403508772  L 7.03488372093023 6.27953216885965  L 10.4116279069767 6.27953216885965  L 10.4116279069767 7.39298245614035  L 6.28449612936047 7.39298245614035  L 6.28449612936047 9.16140350877193  L 10.4457364447674 9.16140350877193  L 10.4457364287791 10.2748537960526  L 6.28449612936047 10.2748537960526  L 6.28449612936047 13.9754385964912  L 4.74961240843023 13.9754385964912  L 4.74961240843023 10.2748537960526  L 0.622480614825581 10.2748537960526  L 0.622480614825581 9.16140350877193  L 4.74961239244186 9.16140350877193  L 4.74961239244186 7.39298245614035  L 0.622480614825581 7.39298245614035  L 0.622480614825581 6.27953216885965  L 3.99922480087209 6.27953216885965  L 0.0767441860465118 0.024561403508772  L 1.78217054796512 0.024561403508772  L 5.5341085377907 6.18128655482456  L 9.25193798982558 0.024561403508772  Z " fill-rule="nonzero" fill="#ffffff" stroke="none" fill-opacity="0" transform="matrix(1 0 0 1 972 375 )" />
    <path d="M 9.25193798982558 0.024561403508772  L 10.9232558139535 0.024561403508772  L 7.03488372093023 6.27953216885965  L 10.4116279069767 6.27953216885965  L 10.4116279069767 7.39298245614035  L 6.28449612936047 7.39298245614035  L 6.28449612936047 9.16140350877193  L 10.4457364447674 9.16140350877193  L 10.4457364287791 10.2748537960526  L 6.28449612936047 10.2748537960526  L 6.28449612936047 13.9754385964912  L 4.74961240843023 13.9754385964912  L 4.74961240843023 10.2748537960526  L 0.622480614825581 10.2748537960526  L 0.622480614825581 9.16140350877193  L 4.74961239244186 9.16140350877193  L 4.74961239244186 7.39298245614035  L 0.622480614825581 7.39298245614035  L 0.622480614825581 6.27953216885965  L 3.99922480087209 6.27953216885965  L 0.0767441860465118 0.024561403508772  L 1.78217054796512 0.024561403508772  L 5.5341085377907 6.18128655482456  L 9.25193798982558 0.024561403508772  Z " stroke-width="2" stroke="#dcdfe6" fill="none" transform="matrix(1 0 0 1 972 375 )" mask="url(#clip157)" />
  </g>
</svg>