<?xml version="1.0" encoding="utf-8"?>
<svg version="1.1" xmlns:xlink="http://www.w3.org/1999/xlink" width="10px" height="14px" xmlns="http://www.w3.org/2000/svg">
  <defs>
    <mask fill="white" id="clip158">
      <path d="M 0.43627493902439 1.16518181445312  C 0.43627493902439 0.72036362890625  0.840709527439025 0.358272728515625  1.33667405487805 0.358272728515625  L 8.64203990853659 0.360181814453125  C 8.88328160060976 0.360181814453125  9.10891352134146 0.444181814453125  9.27849224085366 0.5969090859375  C 9.44878048780488 0.749636357421875  9.54243902439024 0.952  9.54243902439024 1.16772727148438  L 9.53889135670732 12.8348181855469  C 9.53889135670732 13.2796363710937  9.13445676829268 13.6417272714844  8.63778269817073 13.6417272714844  L 1.3324168445122 13.6398181855469  C 0.836452317073171 13.6398181855469  0.432727271341463 13.2770909140625  0.432727271341463 12.8322727285156  L 0.43627493902439 1.16518181445312  Z M 8.64203990853659 0.00190908593749936  L 1.33667405487805 0  C 0.618625274390244 0  0.0368070884146342 0.521818185546875  0.0368070884146342 1.16518181445312  L 0.0332594207317072 12.8322727285156  C 0.0332594207317072 13.4762727285156  0.615077606707317 13.9980909140625  1.3324168445122 13.9980909140625  L 8.63849224085366 14  C 9.35654102134146 14  9.93835920731707 13.4781818144531  9.93835920731707 12.8348181855469  L 9.941906875 1.16772727148437  C 9.941906875 0.523727271484374  9.36008868902439 0.00190908593749936  8.64203990853659 0.00190908593749936  Z M 1.67157428353658 11.0154545429688  L 1.67441242378049 1.50245454296875  L 8.22909091463415 1.50436364257812  L 8.22625277439024 11.0167272714844  L 1.67157428353658 11.0154545429688  Z M 8.6285587652439 1.1460909140625  L 1.27494457317073 1.14418181445313  L 1.27210643292683 11.3737272714844  L 8.625720625 11.3756363574219  L 8.6285587652439 1.1460909140625  Z M 4.94820399390244 12.1717272714844  C 4.94891548695715 12.1717237426363  4.9496269895308 12.1717219782021  4.95033849346474 12.1717219782021  C 5.16351305713438 12.1717219782021  5.33632518553791 12.326712855864  5.33632518553791 12.5179037926553  C 5.33632518553791 12.5185419272781  5.33632321819661 12.5191800606815  5.33631928353659 12.5198181855469  C 5.33631992973116 12.7130507172789  5.16223712265832 12.8691812348724  4.94749509741409 12.8691812348724  C 4.73275307216985 12.8691812348724  4.55867026509702 12.7130507172789  4.55867026509702 12.520453963388  C 4.55867026509702 12.3278572094971  4.73275307216985 12.1717266919036  4.94749509741409 12.1717266919036  Z M 5.73567757822832 12.5198181787109  C 5.73567757822832 12.1297426879884  5.38313136610879 11.8135088115554  4.94820399390244 11.8134545429687  C 4.51327662169609 11.8135088115554  4.16073040957656 12.1297426879884  4.16073040957656 12.5198181787109  C 4.16073040957656 12.9098936694335  4.51327662169609 13.2261275458664  4.94820399390244 13.2261818144531  C 5.38313136610879 13.2261275458664  5.73567757822832 12.9098936694335  5.73567757822832 12.5198181787109  Z " fill-rule="evenodd" />
    </mask>
  </defs>
  <g transform="matrix(1 0 0 1 -572 -376 )">
    <path d="M 0.43627493902439 1.16518181445312  C 0.43627493902439 0.72036362890625  0.840709527439025 0.358272728515625  1.33667405487805 0.358272728515625  L 8.64203990853659 0.360181814453125  C 8.88328160060976 0.360181814453125  9.10891352134146 0.444181814453125  9.27849224085366 0.5969090859375  C 9.44878048780488 0.749636357421875  9.54243902439024 0.952  9.54243902439024 1.16772727148438  L 9.53889135670732 12.8348181855469  C 9.53889135670732 13.2796363710937  9.13445676829268 13.6417272714844  8.63778269817073 13.6417272714844  L 1.3324168445122 13.6398181855469  C 0.836452317073171 13.6398181855469  0.432727271341463 13.2770909140625  0.432727271341463 12.8322727285156  L 0.43627493902439 1.16518181445312  Z M 8.64203990853659 0.00190908593749936  L 1.33667405487805 0  C 0.618625274390244 0  0.0368070884146342 0.521818185546875  0.0368070884146342 1.16518181445312  L 0.0332594207317072 12.8322727285156  C 0.0332594207317072 13.4762727285156  0.615077606707317 13.9980909140625  1.3324168445122 13.9980909140625  L 8.63849224085366 14  C 9.35654102134146 14  9.93835920731707 13.4781818144531  9.93835920731707 12.8348181855469  L 9.941906875 1.16772727148437  C 9.941906875 0.523727271484374  9.36008868902439 0.00190908593749936  8.64203990853659 0.00190908593749936  Z M 1.67157428353658 11.0154545429688  L 1.67441242378049 1.50245454296875  L 8.22909091463415 1.50436364257812  L 8.22625277439024 11.0167272714844  L 1.67157428353658 11.0154545429688  Z M 8.6285587652439 1.1460909140625  L 1.27494457317073 1.14418181445313  L 1.27210643292683 11.3737272714844  L 8.625720625 11.3756363574219  L 8.6285587652439 1.1460909140625  Z M 4.94820399390244 12.1717272714844  C 4.94891548695715 12.1717237426363  4.9496269895308 12.1717219782021  4.95033849346474 12.1717219782021  C 5.16351305713438 12.1717219782021  5.33632518553791 12.326712855864  5.33632518553791 12.5179037926553  C 5.33632518553791 12.5185419272781  5.33632321819661 12.5191800606815  5.33631928353659 12.5198181855469  C 5.33631992973116 12.7130507172789  5.16223712265832 12.8691812348724  4.94749509741409 12.8691812348724  C 4.73275307216985 12.8691812348724  4.55867026509702 12.7130507172789  4.55867026509702 12.520453963388  C 4.55867026509702 12.3278572094971  4.73275307216985 12.1717266919036  4.94749509741409 12.1717266919036  Z M 5.73567757822832 12.5198181787109  C 5.73567757822832 12.1297426879884  5.38313136610879 11.8135088115554  4.94820399390244 11.8134545429687  C 4.51327662169609 11.8135088115554  4.16073040957656 12.1297426879884  4.16073040957656 12.5198181787109  C 4.16073040957656 12.9098936694335  4.51327662169609 13.2261275458664  4.94820399390244 13.2261818144531  C 5.38313136610879 13.2261275458664  5.73567757822832 12.9098936694335  5.73567757822832 12.5198181787109  Z " fill-rule="nonzero" fill="#ffffff" stroke="none" fill-opacity="0" transform="matrix(1 0 0 1 572 376 )" />
    <path d="M 0.43627493902439 1.16518181445312  C 0.43627493902439 0.72036362890625  0.840709527439025 0.358272728515625  1.33667405487805 0.358272728515625  L 8.64203990853659 0.360181814453125  C 8.88328160060976 0.360181814453125  9.10891352134146 0.444181814453125  9.27849224085366 0.5969090859375  C 9.44878048780488 0.749636357421875  9.54243902439024 0.952  9.54243902439024 1.16772727148438  L 9.53889135670732 12.8348181855469  C 9.53889135670732 13.2796363710937  9.13445676829268 13.6417272714844  8.63778269817073 13.6417272714844  L 1.3324168445122 13.6398181855469  C 0.836452317073171 13.6398181855469  0.432727271341463 13.2770909140625  0.432727271341463 12.8322727285156  L 0.43627493902439 1.16518181445312  Z " stroke-width="2" stroke="#dcdfe6" fill="none" transform="matrix(1 0 0 1 572 376 )" mask="url(#clip158)" />
    <path d="M 8.64203990853659 0.00190908593749936  L 1.33667405487805 0  C 0.618625274390244 0  0.0368070884146342 0.521818185546875  0.0368070884146342 1.16518181445312  L 0.0332594207317072 12.8322727285156  C 0.0332594207317072 13.4762727285156  0.615077606707317 13.9980909140625  1.3324168445122 13.9980909140625  L 8.63849224085366 14  C 9.35654102134146 14  9.93835920731707 13.4781818144531  9.93835920731707 12.8348181855469  L 9.941906875 1.16772727148437  C 9.941906875 0.523727271484374  9.36008868902439 0.00190908593749936  8.64203990853659 0.00190908593749936  Z " stroke-width="2" stroke="#dcdfe6" fill="none" transform="matrix(1 0 0 1 572 376 )" mask="url(#clip158)" />
    <path d="M 1.67157428353658 11.0154545429688  L 1.67441242378049 1.50245454296875  L 8.22909091463415 1.50436364257812  L 8.22625277439024 11.0167272714844  L 1.67157428353658 11.0154545429688  Z " stroke-width="2" stroke="#dcdfe6" fill="none" transform="matrix(1 0 0 1 572 376 )" mask="url(#clip158)" />
    <path d="M 8.6285587652439 1.1460909140625  L 1.27494457317073 1.14418181445313  L 1.27210643292683 11.3737272714844  L 8.625720625 11.3756363574219  L 8.6285587652439 1.1460909140625  Z " stroke-width="2" stroke="#dcdfe6" fill="none" transform="matrix(1 0 0 1 572 376 )" mask="url(#clip158)" />
    <path d="M 4.94820399390244 12.1717272714844  C 4.94891548695715 12.1717237426363  4.9496269895308 12.1717219782021  4.95033849346474 12.1717219782021  C 5.16351305713438 12.1717219782021  5.33632518553791 12.326712855864  5.33632518553791 12.5179037926553  C 5.33632518553791 12.5185419272781  5.33632321819661 12.5191800606815  5.33631928353659 12.5198181855469  C 5.33631992973116 12.7130507172789  5.16223712265832 12.8691812348724  4.94749509741409 12.8691812348724  C 4.73275307216985 12.8691812348724  4.55867026509702 12.7130507172789  4.55867026509702 12.520453963388  C 4.55867026509702 12.3278572094971  4.73275307216985 12.1717266919036  4.94749509741409 12.1717266919036  Z " stroke-width="2" stroke="#dcdfe6" fill="none" transform="matrix(1 0 0 1 572 376 )" mask="url(#clip158)" />
    <path d="M 5.73567757822832 12.5198181787109  C 5.73567757822832 12.1297426879884  5.38313136610879 11.8135088115554  4.94820399390244 11.8134545429687  C 4.51327662169609 11.8135088115554  4.16073040957656 12.1297426879884  4.16073040957656 12.5198181787109  C 4.16073040957656 12.9098936694335  4.51327662169609 13.2261275458664  4.94820399390244 13.2261818144531  C 5.38313136610879 13.2261275458664  5.73567757822832 12.9098936694335  5.73567757822832 12.5198181787109  Z " stroke-width="2" stroke="#dcdfe6" fill="none" transform="matrix(1 0 0 1 572 376 )" mask="url(#clip158)" />
  </g>
</svg>