<?xml version="1.0" encoding="utf-8"?>
<svg version="1.1" xmlns:xlink="http://www.w3.org/1999/xlink" width="14px" height="11px" xmlns="http://www.w3.org/2000/svg">
  <defs>
    <mask fill="white" id="clip159">
      <path d="M 13.2222222222222 0.72480619622093  L 13.2222222222222 10.2751938037791  L 0.777777777777778 10.2751938037791  L 0.777777777777778 0.72480619622093  L 13.2222222222222 0.72480619622093  Z M 0.0864197476851851 10.9573643357558  L 13.9135802523148 10.9573643357558  L 13.9135802523148 0.0426356642441859  L 0.0864197476851851 0.0426356642441859  L 0.0864197476851851 10.9573643357558  Z " fill-rule="evenodd" />
    </mask>
  </defs>
  <g transform="matrix(1 0 0 1 -972 -557 )">
    <path d="M 13.2222222222222 0.72480619622093  L 13.2222222222222 10.2751938037791  L 0.777777777777778 10.2751938037791  L 0.777777777777778 0.72480619622093  L 13.2222222222222 0.72480619622093  Z M 0.0864197476851851 10.9573643357558  L 13.9135802523148 10.9573643357558  L 13.9135802523148 0.0426356642441859  L 0.0864197476851851 0.0426356642441859  L 0.0864197476851851 10.9573643357558  Z " fill-rule="nonzero" fill="#ffffff" stroke="none" fill-opacity="0" transform="matrix(1 0 0 1 972 557 )" />
    <path d="M 13.2222222222222 0.72480619622093  L 13.2222222222222 10.2751938037791  L 0.777777777777778 10.2751938037791  L 0.777777777777778 0.72480619622093  L 13.2222222222222 0.72480619622093  Z " stroke-width="2" stroke="#dcdfe6" fill="none" transform="matrix(1 0 0 1 972 557 )" mask="url(#clip159)" />
    <path d="M 0.0864197476851851 10.9573643357558  L 13.9135802523148 10.9573643357558  L 13.9135802523148 0.0426356642441859  L 0.0864197476851851 0.0426356642441859  L 0.0864197476851851 10.9573643357558  Z " stroke-width="2" stroke="#dcdfe6" fill="none" transform="matrix(1 0 0 1 972 557 )" mask="url(#clip159)" />
  </g>
</svg>