<?xml version="1.0" encoding="utf-8"?>
<svg version="1.1" xmlns:xlink="http://www.w3.org/1999/xlink" width="4px" height="4px" xmlns="http://www.w3.org/2000/svg">
  <defs>
    <mask fill="white" id="clip160">
      <path d="M 0.666666671874999 2.02020201515151  C 0.666666671874999 1.30613688684647  1.26362033643542 0.727272727272726  2 0.727272727272726  C 2.73637966356457 0.727272727272726  3.333333328125 1.30613688684647  3.333333328125 2.02020201515151  C 3.333333328125 2.73426714345656  2.73637966356457 3.3131313030303  2 3.3131313030303  C 1.26362033643542 3.3131313030303  0.666666671874999 2.73426714345656  0.666666671874999 2.02020201515151  Z M 4 2.02020201515152  C 4 0.949104318509976  3.10456949966159 0.0808080757575755  2 0.0808080757575755  C 0.895430500338414 0.0808080757575755  0 0.949104318509976  0 2.02020201515152  C 0 3.09129971179305  0.895430500338414 3.95959595454546  2 3.95959595454546  C 3.10456949966159 3.95959595454546  4 3.09129971179305  4 2.02020201515152  Z " fill-rule="evenodd" />
    </mask>
  </defs>
  <g transform="matrix(1 0 0 1 -977 -560 )">
    <path d="M 0.666666671874999 2.02020201515151  C 0.666666671874999 1.30613688684647  1.26362033643542 0.727272727272726  2 0.727272727272726  C 2.73637966356457 0.727272727272726  3.333333328125 1.30613688684647  3.333333328125 2.02020201515151  C 3.333333328125 2.73426714345656  2.73637966356457 3.3131313030303  2 3.3131313030303  C 1.26362033643542 3.3131313030303  0.666666671874999 2.73426714345656  0.666666671874999 2.02020201515151  Z M 4 2.02020201515152  C 4 0.949104318509976  3.10456949966159 0.0808080757575755  2 0.0808080757575755  C 0.895430500338414 0.0808080757575755  0 0.949104318509976  0 2.02020201515152  C 0 3.09129971179305  0.895430500338414 3.95959595454546  2 3.95959595454546  C 3.10456949966159 3.95959595454546  4 3.09129971179305  4 2.02020201515152  Z " fill-rule="nonzero" fill="#ffffff" stroke="none" fill-opacity="0" transform="matrix(1 0 0 1 977 560 )" />
    <path d="M 0.666666671874999 2.02020201515151  C 0.666666671874999 1.30613688684647  1.26362033643542 0.727272727272726  2 0.727272727272726  C 2.73637966356457 0.727272727272726  3.333333328125 1.30613688684647  3.333333328125 2.02020201515151  C 3.333333328125 2.73426714345656  2.73637966356457 3.3131313030303  2 3.3131313030303  C 1.26362033643542 3.3131313030303  0.666666671874999 2.73426714345656  0.666666671874999 2.02020201515151  Z " stroke-width="2" stroke="#dcdfe6" fill="none" transform="matrix(1 0 0 1 977 560 )" mask="url(#clip160)" />
    <path d="M 4 2.02020201515152  C 4 0.949104318509976  3.10456949966159 0.0808080757575755  2 0.0808080757575755  C 0.895430500338414 0.0808080757575755  0 0.949104318509976  0 2.02020201515152  C 0 3.09129971179305  0.895430500338414 3.95959595454546  2 3.95959595454546  C 3.10456949966159 3.95959595454546  4 3.09129971179305  4 2.02020201515152  Z " stroke-width="2" stroke="#dcdfe6" fill="none" transform="matrix(1 0 0 1 977 560 )" mask="url(#clip160)" />
  </g>
</svg>