<?xml version="1.0" encoding="utf-8"?>
<svg version="1.1" xmlns:xlink="http://www.w3.org/1999/xlink" width="14px" height="3px" xmlns="http://www.w3.org/2000/svg">
  <defs>
    <mask fill="white" id="clip161">
      <path d="M 8.48 2.33230769711538  C 8.60375914714006 2.51536918980014  8.68244326824398 2.71859769561671  8.71111111666667 2.92923076442308  L 13.8737777833333 0.57846154326923  L 13.53955555 0.0369230769230761  L 8.48 2.33230769711538  Z M 5.17333333333333 2.92923076442308  C 5.1965140774205 2.71972309859589  5.26912238913253 2.51655946044348  5.38666666666667 2.33230769711538  L 0.344888883333333 0.036923076923077  L 0.0106666666666667 0.578461543269231  L 5.17333333333333 2.92923076442308  Z " fill-rule="evenodd" />
    </mask>
  </defs>
  <g transform="matrix(1 0 0 1 -972 -558 )">
    <path d="M 8.48 2.33230769711538  C 8.60375914714006 2.51536918980014  8.68244326824398 2.71859769561671  8.71111111666667 2.92923076442308  L 13.8737777833333 0.57846154326923  L 13.53955555 0.0369230769230761  L 8.48 2.33230769711538  Z M 5.17333333333333 2.92923076442308  C 5.1965140774205 2.71972309859589  5.26912238913253 2.51655946044348  5.38666666666667 2.33230769711538  L 0.344888883333333 0.036923076923077  L 0.0106666666666667 0.578461543269231  L 5.17333333333333 2.92923076442308  Z " fill-rule="nonzero" fill="#ffffff" stroke="none" fill-opacity="0" transform="matrix(1 0 0 1 972 558 )" />
    <path d="M 8.48 2.33230769711538  C 8.60375914714006 2.51536918980014  8.68244326824398 2.71859769561671  8.71111111666667 2.92923076442308  L 13.8737777833333 0.57846154326923  L 13.53955555 0.0369230769230761  L 8.48 2.33230769711538  Z " stroke-width="2" stroke="#dcdfe6" fill="none" transform="matrix(1 0 0 1 972 558 )" mask="url(#clip161)" />
    <path d="M 5.17333333333333 2.92923076442308  C 5.1965140774205 2.71972309859589  5.26912238913253 2.51655946044348  5.38666666666667 2.33230769711538  L 0.344888883333333 0.036923076923077  L 0.0106666666666667 0.578461543269231  L 5.17333333333333 2.92923076442308  Z " stroke-width="2" stroke="#dcdfe6" fill="none" transform="matrix(1 0 0 1 972 558 )" mask="url(#clip161)" />
  </g>
</svg>