<?xml version="1.0" encoding="utf-8"?>
<svg version="1.1" xmlns:xlink="http://www.w3.org/1999/xlink" width="13px" height="13px" xmlns="http://www.w3.org/2000/svg">
  <defs>
    <mask fill="white" id="clip162">
      <path d="M 12.9107843137255 3.87861842105263  C 12.9283088235294 3.54649122807017  12.9458333333333 3.24144736842105  12.9617647058824 3.01052631578947  C 12.3866421568627 2.97489035087719  11.8083333333333 2.87796052631579  11.3112745098039 2.73541666666667  C 11.1503676470588 2.69265350877193  10.9894607843137 2.64418859649123  10.8285539215686 2.59287280701754  C 10.4876225490196 2.5030701754386  10.0240196078431 2.32489035087719  9.49669117647059 2.07116228070175  C 9.49031862745098 2.06831140350877  9.48553921568627 2.06546052631579  9.47916666666667 2.06260964912281  C 9.35490196078431 2.00274122807018  9.22904411764706 1.93859649122807  9.1 1.87160087719298  C 8.92634803921569 1.78179824561403  8.75428921568628 1.68771929824561  8.58223039215686 1.58793859649123  C 8.57585784313726 1.58366228070175  8.56948529411765 1.58081140350877  8.56311274509804 1.5765350877193  C 8.44044117647059 1.50526315789474  8.31617647058824 1.43114035087719  8.19509803921569 1.35559210526316  C 8.11544117647059 1.30712719298246  8.03578431372549 1.25438596491228  7.95612745098039 1.2030701754386  C 7.89558823529412 1.16315789473684  7.83664215686274 1.12752192982456  7.77610294117647 1.08618421052632  C 7.33958333333333 0.793969298245614  6.9078431372549 0.466118421052631  6.50318627450981 0.112609649122807  C 6.09852941176471 0.466118421052631  5.66678921568628 0.793969298245614  5.23026960784314 1.08618421052632  C 5.17132352941177 1.12609649122807  5.11078431372549 1.16315789473684  5.05024509803922 1.2030701754386  C 4.97058823529412 1.25438596491228  4.89093137254902 1.30712719298246  4.81127450980392 1.35559210526316  C 4.68860294117647 1.43256578947368  4.56593137254902 1.50526315789474  4.44325980392157 1.5765350877193  C 4.43688725490196 1.58081140350877  4.43051470588235 1.58366228070175  4.42414215686275 1.58793859649123  C 4.25208333333333 1.68629385964912  4.08002450980392 1.78179824561403  3.90637254901961 1.87160087719298  C 3.77732843137255 1.93859649122807  3.65147058823529 2.00274122807018  3.52720588235294 2.06260964912281  C 3.52242647058824 2.06546052631579  3.51605392156863 2.06831140350877  3.51127450980392 2.07116228070175  C 2.98553921568628 2.32489035087719  2.5203431372549 2.5030701754386  2.17941176470588 2.59287280701754  C 2.01850490196079 2.64418859649123  1.85759803921569 2.69265350877193  1.69669117647059 2.73541666666667  C 1.20122549019608 2.87796052631579  0.622916666666667 2.97489035087719  0.0462009803921574 3.01052631578947  L 0.0477941176470593 3.01052631578947  C 0.0653186274509808 3.24144736842105  0.0812500000000004 3.54791666666667  0.101960784313726 3.87861842105263  L 0.11311274509804 3.87861842105263  C 0.210294117647059 5.11589912280702  0.4875 6.87489035087719  0.904901960784314 7.90975877192983  C 0.924019607843138 7.95537280701754  0.939950980392157 8.00241228070175  0.957475490196079 8.04660087719298  C 0.967034313725491 8.06798245614035  0.976593137254903 8.08651315789474  0.986151960784315 8.1078947368421  C 1.98664215686275 10.4185307017544  3.72475490196079 12.100548245614  5.81335784313726 12.7177631578947  L 5.81335784313726 12.7234649122807  C 6.0889705882353 12.8047149122807  6.32156862745098 12.8560307017544  6.50637254901961 12.8873903508772  C 6.68958333333333 12.8560307017544  6.92218137254902 12.8047149122807  7.19938725490196 12.7234649122807  L 7.19938725490196 12.7177631578947  C 9.28799019607843 12.1019736842105  11.0261029411765 10.4199561403509  12.0265931372549 8.1078947368421  C 12.0361519607843 8.08651315789474  12.0457107843137 8.06798245614035  12.0552696078431 8.04660087719298  C 12.074387254902 8.00241228070175  12.090318627451 7.95537280701754  12.1078431372549 7.90975877192983  C 12.5252450980392 6.87631578947368  12.8024509803922 5.11589912280702  12.8996323529412 3.87861842105263  L 12.9107843137255 3.87861842105263  Z M 12.2066176470588 3.54506578947368  C 12.2082107843137 3.56644736842105  12.2082107843137 3.58782894736842  12.2066176470588 3.6077850877193  L 12.1986519607843 3.74320175438596  C 12.1906862745098 3.77456140350877  12.1843137254902 3.80592105263158  12.1827205882353 3.83728070175439  C 12.0919117647059 4.9890350877193  11.8370098039216 6.6952850877193  11.4275735294118 7.70734649122807  C 11.4164215686274 7.7344298245614  11.4052696078431 7.76293859649123  11.3957107843137 7.79002192982456  C 11.3893382352941 7.80712719298246  11.3829656862745 7.82565789473684  11.3734068627451 7.8484649122807  C 11.3654411764706 7.8655701754386  11.3574754901961 7.88410087719298  11.3511029411765 7.8969298245614  C 10.4207107843137 10.0464912280702  8.82120098039216 11.5930921052632  6.96200980392157 12.1418859649123  C 6.93174019607843 12.1504385964912  6.90306372549019 12.1618421052632  6.87438725490196 12.1732456140351  C 6.74852941176471 12.2088815789474  6.62426470588235 12.2388157894737  6.50477941176471 12.263048245614  C 6.38529411764706 12.2388157894737  6.26262254901961 12.2088815789474  6.13676470588235 12.1732456140351  C 6.10808823529412 12.1604166666667  6.07941176470588 12.1504385964912  6.04914215686274 12.1418859649123  C 4.18995098039216 11.5930921052632  2.59044117647059 10.0464912280702  1.66164215686274 7.90120614035088  C 1.65367647058823 7.88410087719298  1.64730392156863 7.86699561403509  1.63455882352941 7.84276315789474  C 1.6281862745098 7.82565789473684  1.6218137254902 7.80855263157895  1.61384803921569 7.79144736842105  C 1.60269607843137 7.76293859649123  1.59313725490196 7.73585526315789  1.58357843137255 7.71162280701754  C 1.17254901960784 6.69671052631579  0.91924019607843 4.9890350877193  0.828431372549019 3.83870614035088  C 0.825245098039215 3.80592105263158  0.820465686274509 3.77456140350877  0.812499999999999 3.74462719298245  L 0.804534313725489 3.61206140350877  C 0.802941176470587 3.5906798245614  0.801348039215686 3.56929824561403  0.801348039215686 3.54791666666666  C 1.19325980392157 3.49375  1.57242647058823 3.41535087719298  1.91654411764706 3.31699561403509  C 2.07745098039216 3.27423245614035  2.24154411764706 3.22576754385965  2.41678921568627 3.16875  C 2.81825980392157 3.06041666666667  3.31691176470588 2.86655701754386  3.85857843137255 2.60427631578947  C 3.86813725490196 2.6  3.87769607843137 2.59572368421053  3.88566176470588 2.59144736842105  C 4.01629901960784 2.52872807017544  4.15171568627451 2.46030701754386  4.28075980392157 2.39188596491228  C 4.45122549019608 2.30493421052631  4.63125 2.20657894736842  4.83039215686274 2.09111842105263  C 4.83676470588235 2.08826754385965  4.84632352941176 2.08256578947368  4.85110294117647 2.0797149122807  C 4.98174019607843 2.00416666666667  5.11237745098039 1.92576754385965  5.23504901960784 1.84879385964912  C 5.30674019607843 1.80460526315789  5.38002450980392 1.75756578947368  5.45330882352941 1.71052631578947  L 5.49154411764706 1.68486842105263  L 5.55526960784314 1.64353070175438  C 5.59669117647059 1.61644736842105  5.63811274509804 1.59078947368421  5.67475490196078 1.56513157894737  C 5.95992647058823 1.37412280701754  6.23713235294117 1.17313596491228  6.5031862745098 0.96502192982456  C 6.76924019607843 1.17456140350877  7.04485294117647 1.37412280701754  7.32843137254902 1.56370614035088  C 7.36985294117647 1.59078947368421  7.40968137254902 1.61787280701754  7.45110294117647 1.64353070175438  L 7.51960784313725 1.68771929824561  L 7.54350490196078 1.70339912280702  C 7.61997549019608 1.75328947368421  7.69644607843137 1.80175438596491  7.76654411764706 1.84451754385965  C 7.89558823529412 1.92576754385965  8.02622549019608 2.00416666666667  8.14411764705882 2.07258771929824  L 8.17757352941176 2.09111842105263  C 8.37512254901961 2.20515350877193  8.55514705882353 2.30350877192982  8.72083333333333 2.38760964912281  C 8.8578431372549 2.45888157894737  8.99166666666667 2.52730263157895  9.11911764705882 2.58859649122807  C 9.12549019607843 2.59144736842105  9.13504901960784 2.59572368421053  9.14301470588235 2.6  C 9.68786764705882 2.86228070175438  10.188112745098 3.05756578947368  10.5911764705882 3.16589912280702  C 10.7664215686275 3.22149122807017  10.9305147058824 3.26995614035088  11.0786764705882 3.30986842105263  C 11.4307598039216 3.41107456140351  11.813112745098 3.48947368421053  12.2066176470588 3.54506578947368  Z M 10.1435049019608 5.06600877192983  C 10.0112745098039 4.94199561403509  9.79620098039216 4.94199561403509  9.66397058823529 5.06315789473684  L 5.9280637254902 8.48991228070175  L 4.01629901960784 6.73662280701754  C 3.88406862745098 6.61546052631579  3.66899509803922 6.61546052631579  3.53676470588235 6.73662280701754  C 3.40453431372549 6.8577850877193  3.40453431372549 7.05449561403509  3.53676470588235 7.17708333333333  L 5.6890931372549 9.15131578947369  C 5.75600490196079 9.21260964912281  5.84203431372549 9.24254385964912  5.9296568627451 9.24254385964912  C 6.0156862745098 9.24254385964912  6.10330882352941 9.21260964912281  6.16862745098039 9.15131578947369  L 10.1435049019608 5.50646929824561  C 10.2757352941176 5.38530701754386  10.2757352941176 5.18859649122807  10.1435049019608 5.06600877192983  Z " fill-rule="evenodd" />
    </mask>
  </defs>
  <g transform="matrix(1 0 0 1 -572 -616 )">
    <path d="M 12.9107843137255 3.87861842105263  C 12.9283088235294 3.54649122807017  12.9458333333333 3.24144736842105  12.9617647058824 3.01052631578947  C 12.3866421568627 2.97489035087719  11.8083333333333 2.87796052631579  11.3112745098039 2.73541666666667  C 11.1503676470588 2.69265350877193  10.9894607843137 2.64418859649123  10.8285539215686 2.59287280701754  C 10.4876225490196 2.5030701754386  10.0240196078431 2.32489035087719  9.49669117647059 2.07116228070175  C 9.49031862745098 2.06831140350877  9.48553921568627 2.06546052631579  9.47916666666667 2.06260964912281  C 9.35490196078431 2.00274122807018  9.22904411764706 1.93859649122807  9.1 1.87160087719298  C 8.92634803921569 1.78179824561403  8.75428921568628 1.68771929824561  8.58223039215686 1.58793859649123  C 8.57585784313726 1.58366228070175  8.56948529411765 1.58081140350877  8.56311274509804 1.5765350877193  C 8.44044117647059 1.50526315789474  8.31617647058824 1.43114035087719  8.19509803921569 1.35559210526316  C 8.11544117647059 1.30712719298246  8.03578431372549 1.25438596491228  7.95612745098039 1.2030701754386  C 7.89558823529412 1.16315789473684  7.83664215686274 1.12752192982456  7.77610294117647 1.08618421052632  C 7.33958333333333 0.793969298245614  6.9078431372549 0.466118421052631  6.50318627450981 0.112609649122807  C 6.09852941176471 0.466118421052631  5.66678921568628 0.793969298245614  5.23026960784314 1.08618421052632  C 5.17132352941177 1.12609649122807  5.11078431372549 1.16315789473684  5.05024509803922 1.2030701754386  C 4.97058823529412 1.25438596491228  4.89093137254902 1.30712719298246  4.81127450980392 1.35559210526316  C 4.68860294117647 1.43256578947368  4.56593137254902 1.50526315789474  4.44325980392157 1.5765350877193  C 4.43688725490196 1.58081140350877  4.43051470588235 1.58366228070175  4.42414215686275 1.58793859649123  C 4.25208333333333 1.68629385964912  4.08002450980392 1.78179824561403  3.90637254901961 1.87160087719298  C 3.77732843137255 1.93859649122807  3.65147058823529 2.00274122807018  3.52720588235294 2.06260964912281  C 3.52242647058824 2.06546052631579  3.51605392156863 2.06831140350877  3.51127450980392 2.07116228070175  C 2.98553921568628 2.32489035087719  2.5203431372549 2.5030701754386  2.17941176470588 2.59287280701754  C 2.01850490196079 2.64418859649123  1.85759803921569 2.69265350877193  1.69669117647059 2.73541666666667  C 1.20122549019608 2.87796052631579  0.622916666666667 2.97489035087719  0.0462009803921574 3.01052631578947  L 0.0477941176470593 3.01052631578947  C 0.0653186274509808 3.24144736842105  0.0812500000000004 3.54791666666667  0.101960784313726 3.87861842105263  L 0.11311274509804 3.87861842105263  C 0.210294117647059 5.11589912280702  0.4875 6.87489035087719  0.904901960784314 7.90975877192983  C 0.924019607843138 7.95537280701754  0.939950980392157 8.00241228070175  0.957475490196079 8.04660087719298  C 0.967034313725491 8.06798245614035  0.976593137254903 8.08651315789474  0.986151960784315 8.1078947368421  C 1.98664215686275 10.4185307017544  3.72475490196079 12.100548245614  5.81335784313726 12.7177631578947  L 5.81335784313726 12.7234649122807  C 6.0889705882353 12.8047149122807  6.32156862745098 12.8560307017544  6.50637254901961 12.8873903508772  C 6.68958333333333 12.8560307017544  6.92218137254902 12.8047149122807  7.19938725490196 12.7234649122807  L 7.19938725490196 12.7177631578947  C 9.28799019607843 12.1019736842105  11.0261029411765 10.4199561403509  12.0265931372549 8.1078947368421  C 12.0361519607843 8.08651315789474  12.0457107843137 8.06798245614035  12.0552696078431 8.04660087719298  C 12.074387254902 8.00241228070175  12.090318627451 7.95537280701754  12.1078431372549 7.90975877192983  C 12.5252450980392 6.87631578947368  12.8024509803922 5.11589912280702  12.8996323529412 3.87861842105263  L 12.9107843137255 3.87861842105263  Z M 12.2066176470588 3.54506578947368  C 12.2082107843137 3.56644736842105  12.2082107843137 3.58782894736842  12.2066176470588 3.6077850877193  L 12.1986519607843 3.74320175438596  C 12.1906862745098 3.77456140350877  12.1843137254902 3.80592105263158  12.1827205882353 3.83728070175439  C 12.0919117647059 4.9890350877193  11.8370098039216 6.6952850877193  11.4275735294118 7.70734649122807  C 11.4164215686274 7.7344298245614  11.4052696078431 7.76293859649123  11.3957107843137 7.79002192982456  C 11.3893382352941 7.80712719298246  11.3829656862745 7.82565789473684  11.3734068627451 7.8484649122807  C 11.3654411764706 7.8655701754386  11.3574754901961 7.88410087719298  11.3511029411765 7.8969298245614  C 10.4207107843137 10.0464912280702  8.82120098039216 11.5930921052632  6.96200980392157 12.1418859649123  C 6.93174019607843 12.1504385964912  6.90306372549019 12.1618421052632  6.87438725490196 12.1732456140351  C 6.74852941176471 12.2088815789474  6.62426470588235 12.2388157894737  6.50477941176471 12.263048245614  C 6.38529411764706 12.2388157894737  6.26262254901961 12.2088815789474  6.13676470588235 12.1732456140351  C 6.10808823529412 12.1604166666667  6.07941176470588 12.1504385964912  6.04914215686274 12.1418859649123  C 4.18995098039216 11.5930921052632  2.59044117647059 10.0464912280702  1.66164215686274 7.90120614035088  C 1.65367647058823 7.88410087719298  1.64730392156863 7.86699561403509  1.63455882352941 7.84276315789474  C 1.6281862745098 7.82565789473684  1.6218137254902 7.80855263157895  1.61384803921569 7.79144736842105  C 1.60269607843137 7.76293859649123  1.59313725490196 7.73585526315789  1.58357843137255 7.71162280701754  C 1.17254901960784 6.69671052631579  0.91924019607843 4.9890350877193  0.828431372549019 3.83870614035088  C 0.825245098039215 3.80592105263158  0.820465686274509 3.77456140350877  0.812499999999999 3.74462719298245  L 0.804534313725489 3.61206140350877  C 0.802941176470587 3.5906798245614  0.801348039215686 3.56929824561403  0.801348039215686 3.54791666666666  C 1.19325980392157 3.49375  1.57242647058823 3.41535087719298  1.91654411764706 3.31699561403509  C 2.07745098039216 3.27423245614035  2.24154411764706 3.22576754385965  2.41678921568627 3.16875  C 2.81825980392157 3.06041666666667  3.31691176470588 2.86655701754386  3.85857843137255 2.60427631578947  C 3.86813725490196 2.6  3.87769607843137 2.59572368421053  3.88566176470588 2.59144736842105  C 4.01629901960784 2.52872807017544  4.15171568627451 2.46030701754386  4.28075980392157 2.39188596491228  C 4.45122549019608 2.30493421052631  4.63125 2.20657894736842  4.83039215686274 2.09111842105263  C 4.83676470588235 2.08826754385965  4.84632352941176 2.08256578947368  4.85110294117647 2.0797149122807  C 4.98174019607843 2.00416666666667  5.11237745098039 1.92576754385965  5.23504901960784 1.84879385964912  C 5.30674019607843 1.80460526315789  5.38002450980392 1.75756578947368  5.45330882352941 1.71052631578947  L 5.49154411764706 1.68486842105263  L 5.55526960784314 1.64353070175438  C 5.59669117647059 1.61644736842105  5.63811274509804 1.59078947368421  5.67475490196078 1.56513157894737  C 5.95992647058823 1.37412280701754  6.23713235294117 1.17313596491228  6.5031862745098 0.96502192982456  C 6.76924019607843 1.17456140350877  7.04485294117647 1.37412280701754  7.32843137254902 1.56370614035088  C 7.36985294117647 1.59078947368421  7.40968137254902 1.61787280701754  7.45110294117647 1.64353070175438  L 7.51960784313725 1.68771929824561  L 7.54350490196078 1.70339912280702  C 7.61997549019608 1.75328947368421  7.69644607843137 1.80175438596491  7.76654411764706 1.84451754385965  C 7.89558823529412 1.92576754385965  8.02622549019608 2.00416666666667  8.14411764705882 2.07258771929824  L 8.17757352941176 2.09111842105263  C 8.37512254901961 2.20515350877193  8.55514705882353 2.30350877192982  8.72083333333333 2.38760964912281  C 8.8578431372549 2.45888157894737  8.99166666666667 2.52730263157895  9.11911764705882 2.58859649122807  C 9.12549019607843 2.59144736842105  9.13504901960784 2.59572368421053  9.14301470588235 2.6  C 9.68786764705882 2.86228070175438  10.188112745098 3.05756578947368  10.5911764705882 3.16589912280702  C 10.7664215686275 3.22149122807017  10.9305147058824 3.26995614035088  11.0786764705882 3.30986842105263  C 11.4307598039216 3.41107456140351  11.813112745098 3.48947368421053  12.2066176470588 3.54506578947368  Z M 10.1435049019608 5.06600877192983  C 10.0112745098039 4.94199561403509  9.79620098039216 4.94199561403509  9.66397058823529 5.06315789473684  L 5.9280637254902 8.48991228070175  L 4.01629901960784 6.73662280701754  C 3.88406862745098 6.61546052631579  3.66899509803922 6.61546052631579  3.53676470588235 6.73662280701754  C 3.40453431372549 6.8577850877193  3.40453431372549 7.05449561403509  3.53676470588235 7.17708333333333  L 5.6890931372549 9.15131578947369  C 5.75600490196079 9.21260964912281  5.84203431372549 9.24254385964912  5.9296568627451 9.24254385964912  C 6.0156862745098 9.24254385964912  6.10330882352941 9.21260964912281  6.16862745098039 9.15131578947369  L 10.1435049019608 5.50646929824561  C 10.2757352941176 5.38530701754386  10.2757352941176 5.18859649122807  10.1435049019608 5.06600877192983  Z " fill-rule="nonzero" fill="#ffffff" stroke="none" fill-opacity="0" transform="matrix(1 0 0 1 572 616 )" />
    <path d="M 12.9107843137255 3.87861842105263  C 12.9283088235294 3.54649122807017  12.9458333333333 3.24144736842105  12.9617647058824 3.01052631578947  C 12.3866421568627 2.97489035087719  11.8083333333333 2.87796052631579  11.3112745098039 2.73541666666667  C 11.1503676470588 2.69265350877193  10.9894607843137 2.64418859649123  10.8285539215686 2.59287280701754  C 10.4876225490196 2.5030701754386  10.0240196078431 2.32489035087719  9.49669117647059 2.07116228070175  C 9.49031862745098 2.06831140350877  9.48553921568627 2.06546052631579  9.47916666666667 2.06260964912281  C 9.35490196078431 2.00274122807018  9.22904411764706 1.93859649122807  9.1 1.87160087719298  C 8.92634803921569 1.78179824561403  8.75428921568628 1.68771929824561  8.58223039215686 1.58793859649123  C 8.57585784313726 1.58366228070175  8.56948529411765 1.58081140350877  8.56311274509804 1.5765350877193  C 8.44044117647059 1.50526315789474  8.31617647058824 1.43114035087719  8.19509803921569 1.35559210526316  C 8.11544117647059 1.30712719298246  8.03578431372549 1.25438596491228  7.95612745098039 1.2030701754386  C 7.89558823529412 1.16315789473684  7.83664215686274 1.12752192982456  7.77610294117647 1.08618421052632  C 7.33958333333333 0.793969298245614  6.9078431372549 0.466118421052631  6.50318627450981 0.112609649122807  C 6.09852941176471 0.466118421052631  5.66678921568628 0.793969298245614  5.23026960784314 1.08618421052632  C 5.17132352941177 1.12609649122807  5.11078431372549 1.16315789473684  5.05024509803922 1.2030701754386  C 4.97058823529412 1.25438596491228  4.89093137254902 1.30712719298246  4.81127450980392 1.35559210526316  C 4.68860294117647 1.43256578947368  4.56593137254902 1.50526315789474  4.44325980392157 1.5765350877193  C 4.43688725490196 1.58081140350877  4.43051470588235 1.58366228070175  4.42414215686275 1.58793859649123  C 4.25208333333333 1.68629385964912  4.08002450980392 1.78179824561403  3.90637254901961 1.87160087719298  C 3.77732843137255 1.93859649122807  3.65147058823529 2.00274122807018  3.52720588235294 2.06260964912281  C 3.52242647058824 2.06546052631579  3.51605392156863 2.06831140350877  3.51127450980392 2.07116228070175  C 2.98553921568628 2.32489035087719  2.5203431372549 2.5030701754386  2.17941176470588 2.59287280701754  C 2.01850490196079 2.64418859649123  1.85759803921569 2.69265350877193  1.69669117647059 2.73541666666667  C 1.20122549019608 2.87796052631579  0.622916666666667 2.97489035087719  0.0462009803921574 3.01052631578947  L 0.0477941176470593 3.01052631578947  C 0.0653186274509808 3.24144736842105  0.0812500000000004 3.54791666666667  0.101960784313726 3.87861842105263  L 0.11311274509804 3.87861842105263  C 0.210294117647059 5.11589912280702  0.4875 6.87489035087719  0.904901960784314 7.90975877192983  C 0.924019607843138 7.95537280701754  0.939950980392157 8.00241228070175  0.957475490196079 8.04660087719298  C 0.967034313725491 8.06798245614035  0.976593137254903 8.08651315789474  0.986151960784315 8.1078947368421  C 1.98664215686275 10.4185307017544  3.72475490196079 12.100548245614  5.81335784313726 12.7177631578947  L 5.81335784313726 12.7234649122807  C 6.0889705882353 12.8047149122807  6.32156862745098 12.8560307017544  6.50637254901961 12.8873903508772  C 6.68958333333333 12.8560307017544  6.92218137254902 12.8047149122807  7.19938725490196 12.7234649122807  L 7.19938725490196 12.7177631578947  C 9.28799019607843 12.1019736842105  11.0261029411765 10.4199561403509  12.0265931372549 8.1078947368421  C 12.0361519607843 8.08651315789474  12.0457107843137 8.06798245614035  12.0552696078431 8.04660087719298  C 12.074387254902 8.00241228070175  12.090318627451 7.95537280701754  12.1078431372549 7.90975877192983  C 12.5252450980392 6.87631578947368  12.8024509803922 5.11589912280702  12.8996323529412 3.87861842105263  L 12.9107843137255 3.87861842105263  Z " stroke-width="2" stroke="#dcdfe6" fill="none" transform="matrix(1 0 0 1 572 616 )" mask="url(#clip162)" />
    <path d="M 12.2066176470588 3.54506578947368  C 12.2082107843137 3.56644736842105  12.2082107843137 3.58782894736842  12.2066176470588 3.6077850877193  L 12.1986519607843 3.74320175438596  C 12.1906862745098 3.77456140350877  12.1843137254902 3.80592105263158  12.1827205882353 3.83728070175439  C 12.0919117647059 4.9890350877193  11.8370098039216 6.6952850877193  11.4275735294118 7.70734649122807  C 11.4164215686274 7.7344298245614  11.4052696078431 7.76293859649123  11.3957107843137 7.79002192982456  C 11.3893382352941 7.80712719298246  11.3829656862745 7.82565789473684  11.3734068627451 7.8484649122807  C 11.3654411764706 7.8655701754386  11.3574754901961 7.88410087719298  11.3511029411765 7.8969298245614  C 10.4207107843137 10.0464912280702  8.82120098039216 11.5930921052632  6.96200980392157 12.1418859649123  C 6.93174019607843 12.1504385964912  6.90306372549019 12.1618421052632  6.87438725490196 12.1732456140351  C 6.74852941176471 12.2088815789474  6.62426470588235 12.2388157894737  6.50477941176471 12.263048245614  C 6.38529411764706 12.2388157894737  6.26262254901961 12.2088815789474  6.13676470588235 12.1732456140351  C 6.10808823529412 12.1604166666667  6.07941176470588 12.1504385964912  6.04914215686274 12.1418859649123  C 4.18995098039216 11.5930921052632  2.59044117647059 10.0464912280702  1.66164215686274 7.90120614035088  C 1.65367647058823 7.88410087719298  1.64730392156863 7.86699561403509  1.63455882352941 7.84276315789474  C 1.6281862745098 7.82565789473684  1.6218137254902 7.80855263157895  1.61384803921569 7.79144736842105  C 1.60269607843137 7.76293859649123  1.59313725490196 7.73585526315789  1.58357843137255 7.71162280701754  C 1.17254901960784 6.69671052631579  0.91924019607843 4.9890350877193  0.828431372549019 3.83870614035088  C 0.825245098039215 3.80592105263158  0.820465686274509 3.77456140350877  0.812499999999999 3.74462719298245  L 0.804534313725489 3.61206140350877  C 0.802941176470587 3.5906798245614  0.801348039215686 3.56929824561403  0.801348039215686 3.54791666666666  C 1.19325980392157 3.49375  1.57242647058823 3.41535087719298  1.91654411764706 3.31699561403509  C 2.07745098039216 3.27423245614035  2.24154411764706 3.22576754385965  2.41678921568627 3.16875  C 2.81825980392157 3.06041666666667  3.31691176470588 2.86655701754386  3.85857843137255 2.60427631578947  C 3.86813725490196 2.6  3.87769607843137 2.59572368421053  3.88566176470588 2.59144736842105  C 4.01629901960784 2.52872807017544  4.15171568627451 2.46030701754386  4.28075980392157 2.39188596491228  C 4.45122549019608 2.30493421052631  4.63125 2.20657894736842  4.83039215686274 2.09111842105263  C 4.83676470588235 2.08826754385965  4.84632352941176 2.08256578947368  4.85110294117647 2.0797149122807  C 4.98174019607843 2.00416666666667  5.11237745098039 1.92576754385965  5.23504901960784 1.84879385964912  C 5.30674019607843 1.80460526315789  5.38002450980392 1.75756578947368  5.45330882352941 1.71052631578947  L 5.49154411764706 1.68486842105263  L 5.55526960784314 1.64353070175438  C 5.59669117647059 1.61644736842105  5.63811274509804 1.59078947368421  5.67475490196078 1.56513157894737  C 5.95992647058823 1.37412280701754  6.23713235294117 1.17313596491228  6.5031862745098 0.96502192982456  C 6.76924019607843 1.17456140350877  7.04485294117647 1.37412280701754  7.32843137254902 1.56370614035088  C 7.36985294117647 1.59078947368421  7.40968137254902 1.61787280701754  7.45110294117647 1.64353070175438  L 7.51960784313725 1.68771929824561  L 7.54350490196078 1.70339912280702  C 7.61997549019608 1.75328947368421  7.69644607843137 1.80175438596491  7.76654411764706 1.84451754385965  C 7.89558823529412 1.92576754385965  8.02622549019608 2.00416666666667  8.14411764705882 2.07258771929824  L 8.17757352941176 2.09111842105263  C 8.37512254901961 2.20515350877193  8.55514705882353 2.30350877192982  8.72083333333333 2.38760964912281  C 8.8578431372549 2.45888157894737  8.99166666666667 2.52730263157895  9.11911764705882 2.58859649122807  C 9.12549019607843 2.59144736842105  9.13504901960784 2.59572368421053  9.14301470588235 2.6  C 9.68786764705882 2.86228070175438  10.188112745098 3.05756578947368  10.5911764705882 3.16589912280702  C 10.7664215686275 3.22149122807017  10.9305147058824 3.26995614035088  11.0786764705882 3.30986842105263  C 11.4307598039216 3.41107456140351  11.813112745098 3.48947368421053  12.2066176470588 3.54506578947368  Z " stroke-width="2" stroke="#dcdfe6" fill="none" transform="matrix(1 0 0 1 572 616 )" mask="url(#clip162)" />
    <path d="M 10.1435049019608 5.06600877192983  C 10.0112745098039 4.94199561403509  9.79620098039216 4.94199561403509  9.66397058823529 5.06315789473684  L 5.9280637254902 8.48991228070175  L 4.01629901960784 6.73662280701754  C 3.88406862745098 6.61546052631579  3.66899509803922 6.61546052631579  3.53676470588235 6.73662280701754  C 3.40453431372549 6.8577850877193  3.40453431372549 7.05449561403509  3.53676470588235 7.17708333333333  L 5.6890931372549 9.15131578947369  C 5.75600490196079 9.21260964912281  5.84203431372549 9.24254385964912  5.9296568627451 9.24254385964912  C 6.0156862745098 9.24254385964912  6.10330882352941 9.21260964912281  6.16862745098039 9.15131578947369  L 10.1435049019608 5.50646929824561  C 10.2757352941176 5.38530701754386  10.2757352941176 5.18859649122807  10.1435049019608 5.06600877192983  Z " stroke-width="2" stroke="#dcdfe6" fill="none" transform="matrix(1 0 0 1 572 616 )" mask="url(#clip162)" />
  </g>
</svg>