<?xml version="1.0" encoding="utf-8"?>
<svg version="1.1" xmlns:xlink="http://www.w3.org/1999/xlink" width="15px" height="15px" xmlns="http://www.w3.org/2000/svg">
  <g transform="matrix(1 0 0 1 -156 -457 )">
    <path d="M 163.5 458  C 167.14 458  170 460.86  170 464.5  C 170 468.14  167.14 471  163.5 471  C 159.86 471  157 468.14  157 464.5  C 157 460.86  159.86 458  163.5 458  Z " fill-rule="nonzero" fill="#ffffff" stroke="none" />
    <path d="M 163.5 458  C 167.14 458  170 460.86  170 464.5  C 170 468.14  167.14 471  163.5 471  C 159.86 471  157 468.14  157 464.5  C 157 460.86  159.86 458  163.5 458  Z " stroke-width="2" stroke="#28d8b4" fill="none" />
  </g>
</svg>