<?xml version="1.0" encoding="utf-8"?>
<svg version="1.1" xmlns:xlink="http://www.w3.org/1999/xlink" width="15px" height="15px" xmlns="http://www.w3.org/2000/svg">
  <g transform="matrix(1 0 0 1 -156 -576 )">
    <path d="M 163.5 577  C 167.14 577  170 579.86  170 583.5  C 170 587.14  167.14 590  163.5 590  C 159.86 590  157 587.14  157 583.5  C 157 579.86  159.86 577  163.5 577  Z " fill-rule="nonzero" fill="#ffffff" stroke="none" />
    <path d="M 163.5 577  C 167.14 577  170 579.86  170 583.5  C 170 587.14  167.14 590  163.5 590  C 159.86 590  157 587.14  157 583.5  C 157 579.86  159.86 577  163.5 577  Z " stroke-width="2" stroke="#f2f2f2" fill="none" />
  </g>
</svg>