<?xml version="1.0" encoding="utf-8"?>
<svg version="1.1" xmlns:xlink="http://www.w3.org/1999/xlink" width="1238px" height="1187px" xmlns="http://www.w3.org/2000/svg">
  <g transform="matrix(1 0 0 1 -31 -45 )">
    <path d="M 32 47  A 1 1 0 0 1 33 46 L 1267 46  A 1 1 0 0 1 1268 47 L 1268 1230  A 1 1 0 0 1 1267 1231 L 33 1231  A 1 1 0 0 1 32 1230 L 32 47  Z " fill-rule="nonzero" fill="#ffffff" stroke="none" />
    <path d="M 31.5 47  A 1.5 1.5 0 0 1 33 45.5 L 1267 45.5  A 1.5 1.5 0 0 1 1268.5 47 L 1268.5 1230  A 1.5 1.5 0 0 1 1267 1231.5 L 33 1231.5  A 1.5 1.5 0 0 1 31.5 1230 L 31.5 47  Z " stroke-width="1" stroke="#ebeef5" fill="none" stroke-opacity="0.996078431372549" />
  </g>
</svg>