<?xml version="1.0" encoding="utf-8"?>
<svg version="1.1" xmlns:xlink="http://www.w3.org/1999/xlink" width="28px" height="28px" xmlns="http://www.w3.org/2000/svg">
  <g transform="matrix(1 0 0 1 -279 -338 )">
    <path d="M 28 28  L 0 0  L 21.9130434687499 0  C 28 0  28 0.866666666665708  28 6.08695653125  L 28 28  Z M 24.3401364327686 6.33347825195312  C 24.3401364327686 6.10091315455998  24.2463520592451 5.87817452615505  24.08 5.71565216796876  C 23.7196289731704 5.38098397355671  23.162110159642 5.38098397355671  22.8017391328125 5.71565216796876  L 18.27304346875 10.0739130351562  L 16.1486956640625 8.0286956640625  C 15.7883246333611 7.69402745272146  15.2308058002327 7.69402745272146  14.8704347695312 8.0286956640625  C 14.7014131491729 8.18851095360046  14.6056442048953 8.4108643474716  14.6056442048953 8.64347826562499  C 14.6056442048953 8.87609218377838  14.7014131491729 9.09844557764956  14.8704347695312 9.25826086718749  L 17.6339130351563 11.9182608671875  C 17.9917641924668 12.2592851104308  18.5543227450331 12.2592851104308  18.9121739023437 11.9182608671875  L 24.08 6.95130433593749  C 24.2463520592451 6.7887819777512  24.3401364327686 6.56604334934627  24.3401364327686 6.33347825195312  Z " fill-rule="nonzero" fill="#95f204" stroke="none" transform="matrix(1 0 0 1 279 338 )" />
  </g>
</svg>