<?xml version="1.0" encoding="utf-8"?>
<svg version="1.1" xmlns:xlink="http://www.w3.org/1999/xlink" width="18px" height="19px" xmlns="http://www.w3.org/2000/svg">
  <g transform="matrix(1 0 0 1 -243 -402 )">
    <path d="M 16.7366597938144 17.4668055638021  C 16.7208247345361 18.2605833333333  16.1032577242268 18.91925  15.34317525 19  L 3.21352578092784 19  C 2.45344330670103 18.91925  1.83587629639175 18.2605833333333  2 17.4499166666667  L 2 5.52636110286458  C 1.83587629639175 5.23925  2.0417319742268 5.01969443619792  2.31092784278351 5.01969443619792  C 2.58012371134021 5.01969443619792  2.78597938917526 5.23925  3 5.52636110286458  L 3 17.4668055638021  C 2.78597938917526 17.7201388971354  2.97600000773196 17.9228055638021  3.21352578092783 18  L 15.3590103092784 18  C 15.5965360824742 17.9228055638021  15.7865567010309 17.7201388971354  15.7865567010309 17.4668055638021  L 15.7865567010309 5.52636110286458  C 15.7865567010309 5.23925  15.992412378866 5.01969443619792  16.2616082474227 5.01969443619792  C 16.5308041159794 5.01969443619792  16.7366597938144 5.23925  16.7366597938144 5.52636110286458  L 16.7366597938144 17.4668055638021  Z M 6.4280412371134 15.9468055638021  C 6.4280412371134 16.2339166666667  6.22218555927835 16.4534722304688  5.95298969072165 16.4534722304688  C 5.68379382216495 16.4534722304688  5.4779381443299 16.2339166666667  5.4779381443299 15.9468055638021  L 5.4779381443299 5.52636110286458  C 5.4779381443299 5.23925  5.68379382216495 5.01969443619792  5.95298969072165 5.01969443619792  C 6.22218555927835 5.01969443619792  6.4280412371134 5.23925  6.4280412371134 5.52636110286458  L 6.4280412371134 15.9468055638021  Z M 13 15.9468055638021  C 13.0470927912371 16.2339166666667  12.8412371134021 16.4534722304688  12.5720412448454 16.4534722304688  C 12.3028453762887 16.4534722304688  12.0969896984536 16.2339166666667  12 15.9468055638021  L 12 5.52636110286458  C 12.0969896984536 5.23925  12.3028453762887 5.01969443619792  12.5720412448454 5.01969443619792  C 12.8412371134021 5.01969443619792  13.0470927912371 5.23925  13 5.52636110286458  L 13 15.9468055638021  Z M 9.75340206185567 15.9468055638021  C 9.75340206185567 16.2339166666667  9.54754638402062 16.4534722304688  9.27835051546392 16.4534722304688  C 9.00915464690722 16.4534722304688  8.80329896907216 16.2339166666667  9 15.9468055638021  L 9 5.52636110286458  C 8.80329896907216 5.23925  9.00915464690721 5.01969443619792  9.27835051546392 5.01969443619792  C 9.54754638402062 5.01969443619792  9.75340206185567 5.23925  9.75340206185567 5.52636110286458  L 9.75340206185567 15.9468055638021  Z M 17.971793814433 2.38502776953125  C 17.971793814433 2.67213887239583  17.7501031005155 2.89169443619792  17.4809072087629 2.89169443619792  L 12.3978556623711 2.89169443619792  L 10.6084948453608 1.16902776953125  L 7.83736081701031 1.16902776953125  L 6.14301030927835 2.89169443619792  L 0.648247430412371 2.89169443619792  C 0.37905156185567 2.89169443619792  0.173195884020618 2.67213887239583  0.173195884020618 2.38502776953125  C 0.173195884020618 2.09791666666667  0.37905156185567 1.87836110286458  0.648247430412371 1.87836110286458  L 5.76296907216495 1.87836110286458  L 7.45731957989691 0.155694436197917  L 10.9727010231959 0.155694436197917  L 12.7620618634021 1.87836110286458  L 17.4967422680412 1.87836110286458  C 17.7659381365979 1.87836110286458  17.971793814433 2.09791666666667  17.971793814433 2.38502776953125  Z " fill-rule="nonzero" fill="#ffffff" stroke="none" transform="matrix(1 0 0 1 243 402 )" />
  </g>
</svg>