<?xml version="1.0" encoding="utf-8"?>
<svg version="1.1" xmlns:xlink="http://www.w3.org/1999/xlink" width="18px" height="19px" xmlns="http://www.w3.org/2000/svg">
  <g transform="matrix(1 0 0 1 -208 -402 )">
    <path d="M 16.5641481388889 8.31946665735294  C 16.5665185 10.4212391970588  15.4903703611111 12.6231529411765  14.048 14.1503058823529  L 17.73274075 17.8817568720588  C 17.8986666666667 18.0486588235294  18.0681481666667 18.3908078617647  17.73274075 18.7293804014706  C 17.3973333333333 19.0691451073529  16.9682963055556 18.8032941176471  16.896 18.7293804014706  L 13.2100740833333 14.9979294117647  C 11.8317037222222 15.9814588235294  10.0491851944444 16.5668078338235  8.35555555555555 16.5656156955882  C 8.35357998447421 16.565617131612  8.35160441293547 16.565617849624  8.34962884133829 16.565617849624  C 3.82146331968562 16.565617849624  0.150110018771013 12.8742680192765  0.148148138888889 8.31946665735294  C 0.150764130761239 3.76513116001829  3.82192553004563 0.0745076587639665  8.34962824218716 0.0745076587639665  C 8.35160401350345 0.0745076587639665  8.35357978475526 0.0745083769211227  8.35555555555556 0.0745098132352938  C 12.8888888888889 0.0745098132352938  16.5641481388889 3.76542746029412  16.5641481388889 8.31946665735294  Z M 15.2568888888889 8.31708235294118  C 15.2542714688862 4.48560130083681  12.1646306784975 1.3815221532553  8.35555555555556 1.38349804852941  C 4.54648043261363 1.3815221532553  1.45683964222496 4.48560130083681  1.45422222222222 8.31708235294118  C 1.45749371880953 12.148563547302  4.54766537411883 15.252109258798  8.35674075 15.2494745191176  C 8.35832129579232 15.2494756123761  8.35990184191113 15.2494761590054  8.36148238807714 15.2494761590054  C 12.1683229280295 15.2494761590054  15.254926825456 12.1463155639377  15.2568888888889 8.31708235294118  Z M 8.96355555555556 8.96323136323529  L 8.96474075 8.9632313632353  L 8.96474075 12.1975529411765  C 8.96481708017933 12.201535515797  8.96485524792811 12.2055187379424  8.96485524792811 12.2095020525986  C 8.96485524792811 12.5495946249616  8.6924590560889 12.826189137111  8.35437036111111 12.8293960691176  C 8.01592699181319 12.8248708990137  7.7439265008187 12.5476094423982  7.7439265008187 12.2071451560114  C 7.7439265008187 12.2039476086119  7.74395100127348 12.2007501086992  7.744 12.1975529411765  L 7.744 8.9632313632353  L 4.50962963888889 8.9632313632353  C 4.16762219892223 8.9632313632353  3.89037038888889 8.68434866020176  3.89037038888889 8.34032941176471  C 3.89037038888889 7.99631016332766  4.16762219892224 7.71742746029412  4.50962963888889 7.71742746029412  L 7.74281480555556 7.71742746029412  L 7.74281480555556 4.57132548088235  C 7.74273847537623 4.56734290626185  7.74270030762746 4.56335968411647  7.74270030762746 4.55937636946026  C 7.74270030762746 4.21928379709721  8.01509649946667 3.94268928494784  8.35318519444445 3.93948235294118  C 8.68977777777778 3.93948235294118  8.96355555555556 4.22083136323529  8.96355555555556 4.57132548088235  L 8.96355555555556 7.71742746029412  L 11.9786666666667 7.71742746029412  C 12.3206741066333 7.71742746029412  12.5979259166667 7.99631016332766  12.5979259166667 8.34032941176471  C 12.5979259166667 8.68434866020175  12.3206741066333 8.96323136323529  11.9786666666667 8.96323136323529  L 8.96355555555556 8.96323136323529  Z " fill-rule="nonzero" fill="#ffffff" stroke="none" transform="matrix(1 0 0 1 208 402 )" />
  </g>
</svg>