<?xml version="1.0" encoding="utf-8"?>
<svg version="1.1" xmlns:xlink="http://www.w3.org/1999/xlink" width="10px" height="10px" xmlns="http://www.w3.org/2000/svg">
  <g transform="matrix(1 0 0 1 -2 -2 )">
    <path d="M 8.95866882102273 8.34411309659091  L 5.18908748579546 4.56319409090909  L 8.95727602272727 0.814553267045455  C 9.1354534375 0.637279928977273  9.13635752840909 0.350001832386364  8.95908419034091 0.171824403409091  C 8.78134659090909 -0.00681727272727205  8.49453275568182 -0.00725710227272676  8.31635532670455 0.170016235795455  L 4.54726271306818 3.91909688920455  L 0.810912514204546 0.17136015625  C 0.6341034375 -0.00591318181818194  0.346361079545455 -0.00681725852272744  0.168183650568182 0.170456079545454  C -0.00955394886363627 0.347729417613636  -0.00999376420454516 0.63544734375  0.167279573863637 0.813649204545455  L 3.90272569602273 4.56045742897727  L 0.136369758522727 8.30682582386364  C -0.0418076562499998 8.48409916193182  -0.0427117471590907 8.77137725852273  0.134561590909091 8.9495546875  C 0.223186036931818 9.03864339488636  0.340008068181819 9.08365201704546  0.456830099431818 9.08365201704546  C 0.572748053977273 9.08365201704546  0.6886415625 9.03957191761364  0.777290454545455 8.95138728693182  L 4.54457491477273 5.20411480113636  L 8.31503588068182 8.98593786931818  C 8.40366032670454 9.07502657670454  8.52004254261363 9.1195709375  8.63686457386364 9.1195709375  C 8.75322234375 9.1195709375  8.86914029829546 9.07502657670454  8.95776474431818 8.98684196022727  C 9.13550234375 8.80956862215909  9.13594215909091 8.52229052556818  8.95866882102273 8.34411309659091  Z " fill-rule="nonzero" fill="#909399" stroke="none" transform="matrix(1 0 0 1 2 2 )" />
  </g>
</svg>