<?xml version="1.0" encoding="utf-8"?>
<svg version="1.1" xmlns:xlink="http://www.w3.org/1999/xlink" width="12px" height="14px" xmlns="http://www.w3.org/2000/svg">
  <g transform="matrix(1 0 0 1 -6 -6 )">
    <path d="M 11.1832095059412 5.26979931345979  C 11.1876557651486 5.23841755557749  11.1900092119789 5.20676892559147  11.1902539086929 5.17506775067747  C 11.1904901530533 4.97135291511489  11.1042316362698 4.77733574137128  10.9533858661663 4.64229174345081  L 6.57951619762354 0.219823523035196  C 6.43797708221758 0.0772884144743633  6.24314511535994 0.0023746071355769  6.04370131332084 0.0138001806684467  C 6.02688280175107 0.012553712737099  6.01024040025016 0.0111291779584008  5.99324577861164 0.0111291779584008  L 0.797998749218253 0.0111291779584008  C 0.408947128074155 0.0111291779584008  0.0935584740462638 0.330022150364433  0 0.72339656729902  L 0 13.1880758807588  C 0.0935584740462638 13.5814502976934  0.408947128074155 13.9003432700994  0.797998749218253 13.9003432700994  L 10.484052532833 13.9003432700994  C 10.8731041539771 13.9003432700994  11.188492808005 13.5814502976934  11.188492808005 13.1880758807588  L 11.188492808005 5.35313459801262  C 11.188492808005 5.32491100271006  11.1864675422139 5.29722160794944  11.1832095059412 5.26979931345979  Z M 6.78574108818013 4.46280036133695  L 6.78574108818013 2.44289907859081  L 8.78344565353347 4.46280036133695  L 6.78574108818013 4.46280036133695  Z M 9.77961225766105 12.4758084914183  L 1.50243902439024 12.4758084914183  L 1.50243902439024 1.43566395663953  L 5.37686053783615 1.43566395663953  L 5.37686053783615 5.17506775067747  C 5.37686053783615 5.56844216761206  5.69224919186405 5.88733514001809  6.08130081300814 5.88733514001809  L 9.77961225766105 5.88733514001809  L 9.77961225766105 12.4758084914183  Z M 3.21951219512196 9.53770551038839  L 5.50894308943089 9.53770551038839  C 5.89799468088504 9.53770551038839  6.21338333491298 9.21881253798247  6.21338333491298 8.82543812104788  C 6.21338333491298 8.43206370411329  5.89799468088504 8.11317073170726  5.50894305974099 8.11317073170726  L 3.21951219512196 8.11317073170726  C 2.83046060366781 8.11317073170726  2.51507194963992 8.43206370411329  2.51507194963992 8.82543812104788  C 2.51507194963992 9.21881253798247  2.83046060366781 9.53770551038839  3.21951222481191 9.53770551038839  Z M 8.0185115697311 10.1609394760615  L 3.08742964352718 10.1609394760615  C 2.69837802238313 10.1609394760615  2.38298936835519 10.4798324484674  2.38298936835519 10.873206865402  C 2.38298936835519 11.2665812823366  2.69837802238313 11.5854742547425  3.08742964352718 11.5854742547425  L 8.0185115697311 11.5854742547425  C 8.4075631908752 11.5854742547425  8.72295184490309 11.2665812823366  8.72295184490309 10.873206865402  C 8.72295184490309 10.4798324484674  8.4075631908752 10.1609394760615  8.0185115697311 10.1609394760615  Z " fill-rule="nonzero" fill="#aaaaaa" stroke="none" transform="matrix(1 0 0 1 6 6 )" />
  </g>
</svg>