<?xml version="1.0" encoding="utf-8"?>
<svg version="1.1" xmlns:xlink="http://www.w3.org/1999/xlink" width="14px" height="14px" xmlns="http://www.w3.org/2000/svg">
  <g>
    <path d="M 14 7  C 14 3.134  10.866 0  7 0  C 3.134 0  0 3.134  0 7  C 0 10.866  3.134 14  7 14  C 10.866 14  14 10.866  14 7  Z M 12.52890625 9.335171875  C 12.22675 10.049515625  11.794 10.691296875  11.242640625 11.242640625  C 10.691296875 11.794  10.04953125 12.22675  9.335171875 12.52890625  C 8.59609375 12.8415  7.8104375 13  7 13  C 6.1895625 13  5.40390625 12.8415  4.664828125 12.52890625  C 3.95046875 12.226765625  3.308703125 11.794  2.757359375 11.242640625  C 2.206 10.691296875  1.77325 10.04953125  1.47109375 9.335171875  C 1.1585 8.59609375  1 7.8104375  1 7  C 1 6.1895625  1.1585 5.40390625  1.47109375 4.664828125  C 1.773234375 3.95046875  2.206 3.308703125  2.757359375 2.757359375  C 3.308703125 2.206  3.95046875 1.77325  4.664828125 1.47109375  C 5.40390625 1.1585  6.1895625 1  7 1  C 7.8104375 1  8.59609375 1.1585  9.335171875 1.47109375  C 10.04953125 1.773234375  10.691296875 2.206  11.242640625 2.757359375  C 11.794 3.308703125  12.22675 3.95046875  12.52890625 4.664828125  C 12.8415 5.40390625  13 6.1895625  13 7  C 13 7.8104375  12.8415 8.59609375  12.52890625 9.335171875  Z M 10.76296875 4.66446875  C 10.56771875 4.469203125  10.251125 4.469203125  10.055875 4.66446875  L 6.007265625 8.713078125  L 3.944125 6.6499375  C 3.748859375 6.454671875  3.43228125 6.454671875  3.237015625 6.6499375  C 3.04175 6.845203125  3.04175 7.16178125  3.237015625 7.357046875  L 5.653703125 9.773734375  C 5.75134375 9.871375  5.879296875 9.9201875  6.00725 9.9201875  C 6.135203125 9.9201875  6.263171875 9.871375  6.360796875 9.773734375  L 10.76296875 5.371578125  C 10.958234375 5.1763125  10.958234375 4.859734375  10.76296875 4.66446875  Z " fill-rule="nonzero" fill="#67c23a" stroke="none" />
  </g>
</svg>