<?xml version="1.0" encoding="utf-8"?>
<svg version="1.1" xmlns:xlink="http://www.w3.org/1999/xlink" width="1238px" height="908px" xmlns="http://www.w3.org/2000/svg">
  <g transform="matrix(1 0 0 1 -31 -60 )">
    <path d="M 32 62  A 1 1 0 0 1 33 61 L 1267 61  A 1 1 0 0 1 1268 62 L 1268 966  A 1 1 0 0 1 1267 967 L 33 967  A 1 1 0 0 1 32 966 L 32 62  Z " fill-rule="nonzero" fill="#ffffff" stroke="none" />
    <path d="M 31.5 62  A 1.5 1.5 0 0 1 33 60.5 L 1267 60.5  A 1.5 1.5 0 0 1 1268.5 62 L 1268.5 966  A 1.5 1.5 0 0 1 1267 967.5 L 33 967.5  A 1.5 1.5 0 0 1 31.5 966 L 31.5 62  Z " stroke-width="1" stroke="#ebeef5" fill="none" stroke-opacity="0.996078431372549" />
  </g>
</svg>