<?xml version="1.0" encoding="utf-8"?>
<svg version="1.1" xmlns:xlink="http://www.w3.org/1999/xlink" width="155px" height="40px" viewBox="0 0  155 40" xmlns="http://www.w3.org/2000/svg">
  <path d="M 0.5 3  A 2.5 2.5 0 0 1 3 0.5 L 152 0.5  A 2.5 2.5 0 0 1 154.5 3 L 154.5 37  A 2.5 2.5 0 0 1 152 39.5 L 3 39.5  A 2.5 2.5 0 0 1 0.5 37 L 0.5 3  Z " fill-rule="nonzero" fill="#ffffff" stroke="none" fill-opacity="0" />
  <path d="M 0.5 3  A 2.5 2.5 0 0 1 3 0.5 L 152 0.5  A 2.5 2.5 0 0 1 154.5 3 L 154.5 37  A 2.5 2.5 0 0 1 152 39.5 L 3 39.5  A 2.5 2.5 0 0 1 0.5 37 L 0.5 3  Z " stroke-width="1" stroke="#0079fe" fill="none" />
</svg>