<?xml version="1.0" encoding="utf-8"?>
<svg version="1.1" xmlns:xlink="http://www.w3.org/1999/xlink" width="14px" height="14px" xmlns="http://www.w3.org/2000/svg">
  <g transform="matrix(1 0 0 1 1 4 )">
    <path d="M 14 7  C 13.9960747864927 10.8643662043751  10.8643662043751 13.9960747864927  7 14  C 3.13400675118445 14  0 10.8659932488156  0 7  C 0 3.13400675118445  3.13400675118445 0  7 0  C 10.8659932488156 0  14 3.13400675118445  14 7  Z M 13.2878941972656 7  C 13.2839698470894 3.52891874487798  10.471081255122 0.716030152910597  7 0.712105802734376  C 3.52729192630066 0.712105802734376  0.712105802734376 3.52729192630066  0.712105802734376 7  C 0.712105802734376 10.4727080736993  3.52729192630066 13.2878941972656  7 13.2878941972656  C 10.4727080736993 13.2878941972656  13.2878941972656 10.4727080736993  13.2878941972656 7  Z M 9.02594099804687 9.21820956054687  L 9.03306204882812 9.225330625  C 8.93667360719485 9.22589358580115  8.84417537614527 9.18735265578607  8.7767039609375 9.11851475390625  L 4.93489318164063 5.201932859375  C 4.86748786400672 5.13507801793977  4.8295733315099 5.04407237059557  4.8295733315099 4.94913530371094  C 4.8295733315099 4.8541982368263  4.86748786400672 4.7631925894821  4.93489318164063 4.69633774804687  C 5.07376714676608 4.55828763679146  5.29805380245267 4.55828763679146  5.43692776757813 4.69633774804687  L 9.27873856054687 8.61291962890625  C 9.34397887419375 8.67947646269066  9.38052182235003 8.76896040305312  9.38052182235003 8.86215970910283  C 9.38052182235003 9.05822765788059  9.22200727108523 9.21739893438848  9.02594099804687 9.21820956054687  Z M 5.39776194726563 9.07934893359375  C 5.33144330947299 9.14512762943986  5.24193179646717 9.18221097320778  5.14852492382813 9.18260427929687  C 5.05337124603876 9.18220926676344  4.96233468907798 9.14374311607363  4.89572736132812 9.07578840820313  C 4.7576772410122 8.93691444148224  4.7576772410122 8.71262777531463  4.89572736132813 8.57375380859375  L 8.81230925585938 4.73194302929688  C 8.95118322098483 4.59389291804146  9.17546987667142 4.59389291804146  9.31434384179687 4.73194302929688  C 9.38174916364279 4.79879787126415  9.41966369881982 4.88980352154705  9.41966369881982 4.98474059179688  C 9.41966369881982 5.0796776620467  9.38174916364279 5.1706833123296  9.31434384179687 5.23753815429688  L 5.39776194726563 9.07934893359375  Z " fill-rule="nonzero" fill="#909399" stroke="none" transform="matrix(1 0 0 1 -1 -4 )" />
  </g>
</svg>