<?xml version="1.0" encoding="utf-8"?>
<svg version="1.1" xmlns:xlink="http://www.w3.org/1999/xlink" width="14px" height="14px" xmlns="http://www.w3.org/2000/svg">
  <g transform="matrix(1 0 0 1 -1137 -88 )">
    <path d="M 14 7  C 14 3.15  10.85 0  7 0  C 3.15 0  0 3.15  0 7  C 0 10.85  3.15 14  7 14  C 10.85 14  14 10.85  14 7  Z M 13.125 7  C 13.125 10.4125  10.4125 13.125  7 13.125  C 3.5875 13.125  0.875 10.4125  0.875 7  C 0.875 3.5875  3.5875 0.875000000000001  7 0.875000000000001  C 10.4125 0.875000000000001  13.125 3.5875  13.125 7  Z " fill-rule="nonzero" fill="#d8d8d8" stroke="none" transform="matrix(1 0 0 1 1137 88 )" />
  </g>
</svg>